<svg width="305" height="325" viewBox="0 0 305 325" fill="none" xmlns="http://www.w3.org/2000/svg">
<g filter="url(#filter0_d_6_455)">
<rect x="10" y="9" width="279" height="299" rx="5" fill="white"/>
</g>
<circle cx="142" cy="116.5" r="87" stroke="black"/>
<mask id="mask0_6_455" style="mask-type:alpha" maskUnits="userSpaceOnUse" x="54" y="29" width="176" height="175">
<circle cx="142" cy="116.5" r="87.5" fill="#D9D9D9"/>
</mask>
<g mask="url(#mask0_6_455)">
<path d="M126.819 123.456C135.642 131.833 145.732 141.577 144.873 153.714C144.622 157.252 143.293 160.845 140.607 163.163C136.812 166.439 130.885 166.789 127.741 170.692C124.904 174.213 125.499 179.67 128.242 183.264C130.986 186.856 135.401 188.82 139.829 189.735C149.948 191.826 160.985 188.866 168.702 181.993C169.921 180.908 171.088 179.69 171.695 178.176C172.761 175.515 171.918 172.51 171.013 169.791C167.975 160.651 164.265 151.071 166.341 141.667C168.673 131.109 177.739 123.404 182.074 113.499C186.107 104.285 185.679 93.2376 180.947 84.3637C179.17 81.0312 176.696 77.8994 173.277 76.2995C170.05 74.7891 166.345 74.7943 162.784 74.9034C149.179 75.3211 124.771 73.8467 115.167 85.7516C104.895 98.4827 117.473 114.581 126.819 123.456Z" fill="#FFE7FB"/>
<path d="M113.56 192.678C112.199 190.672 110.691 188.676 108.614 187.424C103.954 184.617 97.6264 186.442 93.6797 190.187C89.732 193.932 87.6125 199.158 85.6052 204.216C84.5414 206.893 83.4786 209.572 82.4158 212.25C81.0659 215.65 79.7027 219.107 79.3621 222.749C79.0226 226.391 79.8405 230.309 82.3643 232.957C84.527 235.228 87.6526 236.305 90.7176 236.971C97.8517 238.518 105.239 238.257 112.536 237.988C138.499 237.03 122.323 205.591 113.56 192.678Z" fill="#6987FF"/>
<path d="M167.173 210.792C167.95 206.471 168.193 202.065 169.04 197.756C169.954 193.103 171.573 188.587 173.823 184.413C175.058 182.123 176.661 179.788 179.118 178.935C181.517 178.103 184.212 178.901 186.361 180.252C192.858 184.335 195.269 192.476 197.18 199.906C199.492 208.895 201.804 217.882 204.116 226.869C204.583 228.683 204.837 231.055 203.224 232.006C202.594 232.375 201.829 232.406 201.098 232.426C190.359 232.708 177.541 234.211 166.975 232.071C160.253 230.709 161.372 231.405 163.091 224.828C164.329 220.092 166.299 215.658 167.173 210.792Z" fill="#6987FF"/>
<path d="M134.578 220.098C135.733 223.042 137.037 226.173 139.683 227.903C143.343 230.298 148.529 229.057 151.696 226.041C154.863 223.023 156.371 218.665 157.253 214.381C158.135 210.097 158.506 205.686 159.923 201.548C161.318 197.468 163.723 193.657 164.113 189.362C164.219 188.205 163.988 186.76 162.892 186.373C162.412 186.205 161.883 186.296 161.385 186.403C157.253 187.297 153.347 189.211 149.141 189.643C141.874 190.389 130.013 181.687 126.309 190.068C122.888 197.808 131.812 213.056 134.578 220.098Z" fill="#DAC8FF"/>
<path d="M130.089 119.671C127.587 119.695 125.087 119.719 122.585 119.744C121.867 119.751 121.051 119.802 120.591 120.353C120.023 121.032 120.36 122.138 121.053 122.688C121.748 123.236 122.67 123.376 123.546 123.496C124.674 123.652 125.8 123.806 126.928 123.962C128.518 124.181 130.32 124.342 131.544 123.307C132.769 122.271 132.309 119.648 130.71 119.771" fill="#F03FA3"/>
<path d="M165.256 120.927C162.755 120.951 160.254 120.975 157.754 121C157.035 121.007 156.219 121.058 155.758 121.61C155.191 122.289 155.526 123.394 156.221 123.943C156.914 124.491 157.837 124.631 158.714 124.751C159.84 124.908 160.968 125.062 162.095 125.218C163.684 125.436 165.487 125.598 166.712 124.563C167.936 123.527 167.476 120.904 165.878 121.026" fill="#F03FA3"/>
<path d="M83.4129 229.588L88.5881 205.79C91.3145 193.248 98.9795 182.342 109.855 175.52L129.969 162.906L130.514 157.135L131.934 142.227L131.975 141.805" stroke="black" stroke-miterlimit="10"/>
<path d="M196.618 126.925C194.044 117.914 185.158 72.4994 185.158 72.4994L165.602 71.486C174.291 79.1067 176.7 89.3232 176.7 89.3232C176.298 101.566 174.405 111.299 171.73 119.046H171.72C168.633 128.007 164.466 134.305 160.3 138.708C158.931 140.159 157.553 141.404 156.215 142.463C153.633 144.532 151.184 145.94 149.157 146.876C145.854 148.43 143.622 148.77 143.622 148.77C137.243 146.384 132.109 142.854 127.973 138.708C109.834 120.476 110.853 90.0949 110.4 89.3232C110.4 89.3232 109.99 76.8432 121.011 69.1741L103.101 68.2461C103.101 68.2461 98.2379 95.91 95.1781 116.169C92.1183 136.428 95.6545 149.772 109.188 151.188C122.722 152.604 174.052 151.188 174.052 151.188C174.052 151.188 203.55 151.188 196.618 126.925Z" fill="black"/>
<path d="M156.194 142.288L156.215 142.463L156.781 148.452L158.149 162.907L164.898 167.146H164.919V167.156L178.263 175.52C189.138 182.343 196.803 193.249 199.53 205.79L202.75 220.615L204.705 229.588" stroke="black" stroke-miterlimit="10"/>
<path d="M123.105 98.0235C123.105 98.0235 129.003 96.0142 134.901 98.0235" stroke="black" stroke-width="2" stroke-miterlimit="10" stroke-linecap="round" stroke-linejoin="bevel"/>
<path d="M130.891 106.87C130.891 108.532 130.045 109.877 129.003 109.877C127.962 109.877 127.116 108.532 127.116 106.87C127.116 105.209 127.962 103.863 129.003 103.863C130.045 103.863 130.891 105.209 130.891 106.87Z" fill="black"/>
<path d="M164.74 98.0233C164.74 98.0233 158.842 96.0139 152.944 98.0233" stroke="black" stroke-width="2" stroke-miterlimit="10" stroke-linecap="round" stroke-linejoin="bevel"/>
<path d="M156.954 106.87C156.954 108.532 157.799 109.878 158.841 109.878C159.883 109.878 160.729 108.532 160.729 106.87C160.729 105.209 159.883 103.863 158.841 103.863C157.799 103.863 156.954 105.209 156.954 106.87Z" fill="black"/>
<path d="M142.611 106.901C142.729 107.159 143.246 111.53 139.943 114.376C139.943 114.376 139.26 117.249 144.214 117.315" stroke="black" stroke-miterlimit="10"/>
<path d="M136.829 126.29C136.829 126.29 145.149 129.048 151.598 126.432" stroke="black" stroke-miterlimit="10"/>
<path d="M111.43 100.816C111.43 100.816 104.524 92.1287 100.967 96.1567C97.4117 100.185 104.403 119.696 115.377 117.411" stroke="black" stroke-miterlimit="10"/>
<path d="M105.487 103.966C105.487 103.966 110.678 103.995 112.891 108.113" stroke="black" stroke-miterlimit="10"/>
<path d="M108.241 108.105C108.241 108.105 108.407 106.331 111.731 106.543" stroke="black" stroke-miterlimit="10"/>
<path d="M175.937 100.816C175.937 100.816 182.843 92.1288 186.398 96.1568C189.955 100.185 182.963 119.696 171.99 117.411" fill="#F7F6F2"/>
<path d="M182.073 103.967C182.073 103.967 176.882 103.995 174.669 108.113" stroke="black" stroke-miterlimit="10"/>
<path d="M179.318 108.105C179.318 108.105 179.152 106.331 175.828 106.543" stroke="black" stroke-miterlimit="10"/>
<path d="M110.4 89.3234C110.853 90.095 109.835 120.476 127.973 138.708C132.109 142.854 137.243 146.384 143.622 148.77C143.622 148.77 145.855 148.431 149.157 146.877C151.184 145.94 153.633 144.532 156.215 142.463C157.553 141.404 158.932 140.159 160.3 138.708C164.467 134.305 168.634 128.007 171.72 119.046H171.731C174.406 111.299 176.299 101.566 176.7 89.3234" stroke="black" stroke-miterlimit="10"/>
<path d="M168.529 79.6227C168.529 79.6227 147.111 100.672 111.431 102.875C111.431 102.875 100.428 91.2231 103.102 70.3043C105.776 49.3856 150.92 25.4657 176.707 58.3367C176.707 58.3367 197.546 74.0782 175.936 102.875C175.936 102.875 177.179 97.5526 168.529 79.6227Z" fill="black"/>
<path d="M119.16 169.684C119.16 169.684 131.93 183.53 145.253 187.516C145.253 187.516 159.486 185.509 168.174 169.192" stroke="black" stroke-miterlimit="10"/>
<path d="M116.787 171.173C116.787 171.173 126.378 186.047 144.938 190.765C144.938 190.765 165.4 185.928 170.503 170.653" stroke="black" stroke-miterlimit="10"/>
<path d="M115.395 172.045C115.395 172.045 125.75 204.239 130.311 229.587" stroke="black" stroke-miterlimit="10"/>
<path d="M104.828 179.154C104.828 179.154 100.585 193.754 109.236 203.033C117.886 212.313 128.36 219.841 128.36 219.841" stroke="black" stroke-miterlimit="10"/>
<path d="M172.734 172.045C172.734 172.045 162.377 204.239 157.817 229.587" stroke="black" stroke-miterlimit="10"/>
<path d="M183.303 179.154C183.303 179.154 187.545 193.753 178.894 203.033C170.244 212.313 159.77 219.841 159.77 219.841" stroke="black" stroke-miterlimit="10"/>
<path d="M156.781 148.452C149.734 150.859 137.48 154.862 130.515 157.136L131.934 142.228C135.268 144.851 139.136 147.093 143.622 148.77C143.622 148.77 145.855 148.432 149.158 146.877C151.184 145.941 153.633 144.532 156.215 142.463L156.781 148.452Z" fill="black"/>
</g>
<path d="M41.7266 245.094C41.6641 245.031 41.6328 244.898 41.6328 244.695C41.6328 244.383 41.6641 244.227 41.7266 244.227C41.8516 244.227 42.0312 244.203 42.2656 244.156C42.5 244.109 42.7188 244.047 42.9219 243.969C43.125 243.875 43.2422 243.789 43.2734 243.711C43.3672 243.352 43.4141 242.664 43.4141 241.648V232.789C43.4141 231.914 43.3672 231.305 43.2734 230.961C43.2422 230.867 43.1172 230.773 42.8984 230.68C42.6953 230.57 42.4766 230.484 42.2422 230.422C42.0078 230.344 41.8281 230.305 41.7031 230.305C41.6406 230.305 41.6094 230.164 41.6094 229.883C41.6094 229.633 41.6328 229.484 41.6797 229.438C42.3828 229.469 43.0234 229.5 43.6016 229.531C44.1797 229.547 44.6875 229.555 45.125 229.555C45.3438 229.555 45.5781 229.555 45.8281 229.555C46.0938 229.539 46.3594 229.523 46.625 229.508C46.8906 229.492 47.1484 229.484 47.3984 229.484C47.6484 229.484 47.8906 229.484 48.125 229.484C49.0625 229.484 49.9297 229.609 50.7266 229.859C51.2734 230.016 51.7734 230.281 52.2266 230.656C52.6953 231.016 53.0703 231.461 53.3516 231.992C53.6328 232.508 53.7734 233.102 53.7734 233.773C53.7734 234.617 53.5469 235.391 53.0938 236.094C52.6562 236.797 52.0547 237.367 51.2891 237.805C50.5391 238.227 49.6953 238.438 48.7578 238.438C48.4453 238.438 48.1328 238.391 47.8203 238.297C47.5234 238.203 47.3203 238.078 47.2109 237.922C47.1484 237.828 47.1094 237.656 47.0938 237.406C47.0781 237.156 47.1094 237.031 47.1875 237.031C47.4062 237.156 47.7578 237.219 48.2422 237.219C49.5547 237.219 50.2109 236.156 50.2109 234.031C50.2109 231.891 49.4922 230.82 48.0547 230.82C47.5078 230.82 47.1484 230.883 46.9766 231.008C46.7891 231.148 46.6953 231.914 46.6953 233.305V241.695C46.6953 242.523 46.75 243.164 46.8594 243.617C46.8906 243.742 47.0234 243.852 47.2578 243.945C47.4922 244.039 47.75 244.109 48.0312 244.156C48.3125 244.203 48.5312 244.227 48.6875 244.227C48.75 244.227 48.7812 244.375 48.7812 244.672C48.7812 244.828 48.7656 244.969 48.7344 245.094C46.8594 245 45.6641 244.953 45.1484 244.953L41.7266 245.094ZM60.0312 245.164C59.0781 245.164 58.1953 244.922 57.3828 244.438C56.5859 243.953 55.9453 243.305 55.4609 242.492C54.9922 241.68 54.7578 240.789 54.7578 239.82C54.7578 238.82 54.9688 237.922 55.3906 237.125C55.8281 236.328 56.4297 235.695 57.1953 235.227C57.9609 234.758 58.8438 234.523 59.8438 234.523C60.8281 234.523 61.6641 234.758 62.3516 235.227C63.0547 235.68 63.5859 236.25 63.9453 236.938C64.3203 237.609 64.5078 238.289 64.5078 238.977C64.5078 239.336 64.4297 239.57 64.2734 239.68C64.1328 239.789 63.8438 239.844 63.4062 239.844H58.1094C58.0156 239.844 57.9688 239.898 57.9688 240.008C57.9688 240.57 58.0703 241.102 58.2734 241.602C58.4922 242.102 58.8047 242.508 59.2109 242.82C59.6328 243.133 60.1406 243.289 60.7344 243.289C61.2656 243.289 61.7578 243.211 62.2109 243.055C62.5234 242.961 62.7656 242.875 62.9375 242.797C63.1094 242.719 63.2656 242.633 63.4062 242.539C63.5625 242.43 63.7422 242.297 63.9453 242.141C64.0859 242.203 64.1562 242.352 64.1562 242.586C64.1562 242.789 64.125 242.945 64.0625 243.055C63.9688 243.305 63.7188 243.594 63.3125 243.922C62.9219 244.25 62.4375 244.539 61.8594 244.789C61.2969 245.039 60.6875 245.164 60.0312 245.164ZM58.1328 238.555H61.1094C61.3281 238.555 61.4375 238.406 61.4375 238.109C61.4375 237.516 61.2734 236.984 60.9453 236.516C60.6328 236.047 60.2266 235.812 59.7266 235.812C59.2734 235.812 58.9141 235.977 58.6484 236.305C58.3984 236.617 58.2188 236.969 58.1094 237.359C58.0156 237.75 57.9688 238.07 57.9688 238.32C57.9688 238.477 58.0234 238.555 58.1328 238.555ZM69.9688 250.109C69.1875 250.109 68.4766 250 67.8359 249.781C67.1953 249.578 66.6875 249.281 66.3125 248.891C65.9375 248.5 65.75 248.047 65.75 247.531C65.75 247.188 65.9297 246.82 66.2891 246.43C66.6641 246.039 67.125 245.758 67.6719 245.586C67.2656 245.414 66.8984 245.141 66.5703 244.766C66.2422 244.375 66.0781 243.953 66.0781 243.5C66.0781 243.109 66.25 242.773 66.5938 242.492C66.9531 242.211 67.375 241.938 67.8594 241.672C67.5625 241.5 67.2734 241.242 66.9922 240.898C66.7109 240.555 66.4844 240.164 66.3125 239.727C66.1406 239.273 66.0547 238.828 66.0547 238.391C66.0547 237.531 66.25 236.812 66.6406 236.234C67.0312 235.656 67.5547 235.219 68.2109 234.922C68.8828 234.625 69.625 234.477 70.4375 234.477C71.0156 234.477 71.6797 234.578 72.4297 234.781C72.8047 234.891 73.1406 234.969 73.4375 235.016C73.75 235.062 74.0156 235.086 74.2344 235.086H75.5234C75.5547 235.086 75.6016 235.156 75.6641 235.297C75.7422 235.438 75.8125 235.586 75.875 235.742C75.9375 235.883 75.9688 235.992 75.9688 236.07C75.9688 236.289 75.9219 236.398 75.8281 236.398H74.4453C74.3828 236.414 74.3516 236.438 74.3516 236.469L74.5391 237.102C74.5859 237.305 74.625 237.508 74.6562 237.711C74.6875 237.914 74.7031 238.102 74.7031 238.273C74.7031 238.93 74.5156 239.555 74.1406 240.148C73.7812 240.742 73.2891 241.234 72.6641 241.625C72.0391 242 71.3203 242.188 70.5078 242.188C70.1953 242.188 69.9062 242.18 69.6406 242.164C69.375 242.133 69.1328 242.102 68.9141 242.07C68.7109 242.133 68.5625 242.242 68.4688 242.398C68.3906 242.555 68.3516 242.68 68.3516 242.773C68.3516 242.914 68.4844 243.023 68.75 243.102C68.9688 243.164 69.2969 243.219 69.7344 243.266C70.1719 243.312 70.6094 243.344 71.0469 243.359C71.4844 243.375 71.8203 243.383 72.0547 243.383C74.5391 243.492 75.7969 244.312 75.8281 245.844C75.8281 246.422 75.6562 246.969 75.3125 247.484C74.9844 248 74.5312 248.453 73.9531 248.844C73.3906 249.234 72.7578 249.539 72.0547 249.758C71.3672 249.992 70.6719 250.109 69.9688 250.109ZM70.4141 240.969C71.0078 240.969 71.3672 240.75 71.4922 240.312C71.6172 239.875 71.6797 239.344 71.6797 238.719C71.6797 237.719 71.5859 236.969 71.3984 236.469C71.2109 235.969 70.8359 235.719 70.2734 235.719C69.8984 235.719 69.625 235.828 69.4531 236.047C69.2812 236.266 69.1719 236.547 69.125 236.891C69.0938 237.234 69.0781 237.602 69.0781 237.992V238.109C69.0781 238.609 69.1094 239.078 69.1719 239.516C69.2344 239.953 69.3594 240.305 69.5469 240.57C69.7344 240.836 70.0234 240.969 70.4141 240.969ZM70.3672 248.68C71.1797 248.68 71.8359 248.531 72.3359 248.234C72.8516 247.938 73.1094 247.492 73.1094 246.898C73.1094 246.195 71.7969 245.844 69.1719 245.844C68.7812 245.953 68.4844 246.086 68.2812 246.242C68.0781 246.398 67.9766 246.656 67.9766 247.016C67.9766 247.484 68.2188 247.875 68.7031 248.188C69.2031 248.516 69.7578 248.68 70.3672 248.68ZM82.1797 245.094C82.1172 245.031 82.0859 244.898 82.0859 244.695C82.0859 244.383 82.1172 244.227 82.1797 244.227C82.3047 244.227 82.4844 244.203 82.7188 244.156C82.9531 244.109 83.1719 244.047 83.375 243.969C83.5781 243.875 83.6953 243.789 83.7266 243.711C83.8203 243.352 83.8672 242.664 83.8672 241.648V232.695C83.8672 231.742 83.8047 231.156 83.6797 230.938C83.6328 230.844 83.5078 230.758 83.3047 230.68C83.1172 230.586 82.9219 230.508 82.7188 230.445C82.5156 230.383 82.3516 230.352 82.2266 230.352C82.1641 230.352 82.1328 230.219 82.1328 229.953C82.1328 229.672 82.1484 229.516 82.1797 229.484L85.5781 229.625C85.7344 229.641 86.0859 229.633 86.6328 229.602C87.1797 229.57 87.9219 229.531 88.8594 229.484C88.9062 229.625 88.9297 229.766 88.9297 229.906C88.9297 230.203 88.8984 230.352 88.8359 230.352C88.7422 230.352 88.5781 230.383 88.3438 230.445C88.1094 230.508 87.8828 230.586 87.6641 230.68C87.4609 230.758 87.3438 230.836 87.3125 230.914C87.25 231.117 87.2031 231.383 87.1719 231.711C87.1562 232.023 87.1484 232.383 87.1484 232.789V241.672C87.1484 242.422 87.2109 242.984 87.3359 243.359C87.3984 243.609 87.9297 243.734 88.9297 243.734H89.5391C90.5078 243.734 91.3828 243.531 92.1641 243.125C92.4297 242.984 92.7266 242.719 93.0547 242.328C93.3984 241.938 93.6641 241.5 93.8516 241.016C93.8828 240.922 93.9922 240.875 94.1797 240.875C94.5547 240.875 94.7891 240.922 94.8828 241.016C94.1016 243.172 93.6797 244.516 93.6172 245.047C93.1797 245.047 92.6094 245.039 91.9062 245.023C91.2188 245.023 90.3984 245.016 89.4453 245C88.4922 244.984 87.6953 244.969 87.0547 244.953C86.4297 244.938 85.9453 244.938 85.6016 244.953L82.1797 245.094ZM101.117 245.164C100.164 245.164 99.2812 244.922 98.4688 244.438C97.6719 243.953 97.0312 243.305 96.5469 242.492C96.0781 241.68 95.8438 240.789 95.8438 239.82C95.8438 238.82 96.0547 237.922 96.4766 237.125C96.9141 236.328 97.5156 235.695 98.2812 235.227C99.0469 234.758 99.9297 234.523 100.93 234.523C101.914 234.523 102.75 234.758 103.438 235.227C104.141 235.68 104.672 236.25 105.031 236.938C105.406 237.609 105.594 238.289 105.594 238.977C105.594 239.336 105.516 239.57 105.359 239.68C105.219 239.789 104.93 239.844 104.492 239.844H99.1953C99.1016 239.844 99.0547 239.898 99.0547 240.008C99.0547 240.57 99.1562 241.102 99.3594 241.602C99.5781 242.102 99.8906 242.508 100.297 242.82C100.719 243.133 101.227 243.289 101.82 243.289C102.352 243.289 102.844 243.211 103.297 243.055C103.609 242.961 103.852 242.875 104.023 242.797C104.195 242.719 104.352 242.633 104.492 242.539C104.648 242.43 104.828 242.297 105.031 242.141C105.172 242.203 105.242 242.352 105.242 242.586C105.242 242.789 105.211 242.945 105.148 243.055C105.055 243.305 104.805 243.594 104.398 243.922C104.008 244.25 103.523 244.539 102.945 244.789C102.383 245.039 101.773 245.164 101.117 245.164ZM99.2188 238.555H102.195C102.414 238.555 102.523 238.406 102.523 238.109C102.523 237.516 102.359 236.984 102.031 236.516C101.719 236.047 101.312 235.812 100.812 235.812C100.359 235.812 100 235.977 99.7344 236.305C99.4844 236.617 99.3047 236.969 99.1953 237.359C99.1016 237.75 99.0547 238.07 99.0547 238.32C99.0547 238.477 99.1094 238.555 99.2188 238.555ZM111.055 250.109C110.273 250.109 109.562 250 108.922 249.781C108.281 249.578 107.773 249.281 107.398 248.891C107.023 248.5 106.836 248.047 106.836 247.531C106.836 247.188 107.016 246.82 107.375 246.43C107.75 246.039 108.211 245.758 108.758 245.586C108.352 245.414 107.984 245.141 107.656 244.766C107.328 244.375 107.164 243.953 107.164 243.5C107.164 243.109 107.336 242.773 107.68 242.492C108.039 242.211 108.461 241.938 108.945 241.672C108.648 241.5 108.359 241.242 108.078 240.898C107.797 240.555 107.57 240.164 107.398 239.727C107.227 239.273 107.141 238.828 107.141 238.391C107.141 237.531 107.336 236.812 107.727 236.234C108.117 235.656 108.641 235.219 109.297 234.922C109.969 234.625 110.711 234.477 111.523 234.477C112.102 234.477 112.766 234.578 113.516 234.781C113.891 234.891 114.227 234.969 114.523 235.016C114.836 235.062 115.102 235.086 115.32 235.086H116.609C116.641 235.086 116.688 235.156 116.75 235.297C116.828 235.438 116.898 235.586 116.961 235.742C117.023 235.883 117.055 235.992 117.055 236.07C117.055 236.289 117.008 236.398 116.914 236.398H115.531C115.469 236.414 115.438 236.438 115.438 236.469L115.625 237.102C115.672 237.305 115.711 237.508 115.742 237.711C115.773 237.914 115.789 238.102 115.789 238.273C115.789 238.93 115.602 239.555 115.227 240.148C114.867 240.742 114.375 241.234 113.75 241.625C113.125 242 112.406 242.188 111.594 242.188C111.281 242.188 110.992 242.18 110.727 242.164C110.461 242.133 110.219 242.102 110 242.07C109.797 242.133 109.648 242.242 109.555 242.398C109.477 242.555 109.438 242.68 109.438 242.773C109.438 242.914 109.57 243.023 109.836 243.102C110.055 243.164 110.383 243.219 110.82 243.266C111.258 243.312 111.695 243.344 112.133 243.359C112.57 243.375 112.906 243.383 113.141 243.383C115.625 243.492 116.883 244.312 116.914 245.844C116.914 246.422 116.742 246.969 116.398 247.484C116.07 248 115.617 248.453 115.039 248.844C114.477 249.234 113.844 249.539 113.141 249.758C112.453 249.992 111.758 250.109 111.055 250.109ZM111.5 240.969C112.094 240.969 112.453 240.75 112.578 240.312C112.703 239.875 112.766 239.344 112.766 238.719C112.766 237.719 112.672 236.969 112.484 236.469C112.297 235.969 111.922 235.719 111.359 235.719C110.984 235.719 110.711 235.828 110.539 236.047C110.367 236.266 110.258 236.547 110.211 236.891C110.18 237.234 110.164 237.602 110.164 237.992V238.109C110.164 238.609 110.195 239.078 110.258 239.516C110.32 239.953 110.445 240.305 110.633 240.57C110.82 240.836 111.109 240.969 111.5 240.969ZM111.453 248.68C112.266 248.68 112.922 248.531 113.422 248.234C113.938 247.938 114.195 247.492 114.195 246.898C114.195 246.195 112.883 245.844 110.258 245.844C109.867 245.953 109.57 246.086 109.367 246.242C109.164 246.398 109.062 246.656 109.062 247.016C109.062 247.484 109.305 247.875 109.789 248.188C110.289 248.516 110.844 248.68 111.453 248.68ZM122.422 250.109C121.641 250.109 120.93 250 120.289 249.781C119.648 249.578 119.141 249.281 118.766 248.891C118.391 248.5 118.203 248.047 118.203 247.531C118.203 247.188 118.383 246.82 118.742 246.43C119.117 246.039 119.578 245.758 120.125 245.586C119.719 245.414 119.352 245.141 119.023 244.766C118.695 244.375 118.531 243.953 118.531 243.5C118.531 243.109 118.703 242.773 119.047 242.492C119.406 242.211 119.828 241.938 120.312 241.672C120.016 241.5 119.727 241.242 119.445 240.898C119.164 240.555 118.938 240.164 118.766 239.727C118.594 239.273 118.508 238.828 118.508 238.391C118.508 237.531 118.703 236.812 119.094 236.234C119.484 235.656 120.008 235.219 120.664 234.922C121.336 234.625 122.078 234.477 122.891 234.477C123.469 234.477 124.133 234.578 124.883 234.781C125.258 234.891 125.594 234.969 125.891 235.016C126.203 235.062 126.469 235.086 126.688 235.086H127.977C128.008 235.086 128.055 235.156 128.117 235.297C128.195 235.438 128.266 235.586 128.328 235.742C128.391 235.883 128.422 235.992 128.422 236.07C128.422 236.289 128.375 236.398 128.281 236.398H126.898C126.836 236.414 126.805 236.438 126.805 236.469L126.992 237.102C127.039 237.305 127.078 237.508 127.109 237.711C127.141 237.914 127.156 238.102 127.156 238.273C127.156 238.93 126.969 239.555 126.594 240.148C126.234 240.742 125.742 241.234 125.117 241.625C124.492 242 123.773 242.188 122.961 242.188C122.648 242.188 122.359 242.18 122.094 242.164C121.828 242.133 121.586 242.102 121.367 242.07C121.164 242.133 121.016 242.242 120.922 242.398C120.844 242.555 120.805 242.68 120.805 242.773C120.805 242.914 120.938 243.023 121.203 243.102C121.422 243.164 121.75 243.219 122.188 243.266C122.625 243.312 123.062 243.344 123.5 243.359C123.938 243.375 124.273 243.383 124.508 243.383C126.992 243.492 128.25 244.312 128.281 245.844C128.281 246.422 128.109 246.969 127.766 247.484C127.438 248 126.984 248.453 126.406 248.844C125.844 249.234 125.211 249.539 124.508 249.758C123.82 249.992 123.125 250.109 122.422 250.109ZM122.867 240.969C123.461 240.969 123.82 240.75 123.945 240.312C124.07 239.875 124.133 239.344 124.133 238.719C124.133 237.719 124.039 236.969 123.852 236.469C123.664 235.969 123.289 235.719 122.727 235.719C122.352 235.719 122.078 235.828 121.906 236.047C121.734 236.266 121.625 236.547 121.578 236.891C121.547 237.234 121.531 237.602 121.531 237.992V238.109C121.531 238.609 121.562 239.078 121.625 239.516C121.688 239.953 121.812 240.305 122 240.57C122.188 240.836 122.477 240.969 122.867 240.969ZM122.82 248.68C123.633 248.68 124.289 248.531 124.789 248.234C125.305 247.938 125.562 247.492 125.562 246.898C125.562 246.195 124.25 245.844 121.625 245.844C121.234 245.953 120.938 246.086 120.734 246.242C120.531 246.398 120.43 246.656 120.43 247.016C120.43 247.484 120.672 247.875 121.156 248.188C121.656 248.516 122.211 248.68 122.82 248.68ZM134.656 245.164C133.703 245.164 132.82 244.922 132.008 244.438C131.211 243.953 130.57 243.305 130.086 242.492C129.617 241.68 129.383 240.789 129.383 239.82C129.383 238.82 129.594 237.922 130.016 237.125C130.453 236.328 131.055 235.695 131.82 235.227C132.586 234.758 133.469 234.523 134.469 234.523C135.453 234.523 136.289 234.758 136.977 235.227C137.68 235.68 138.211 236.25 138.57 236.938C138.945 237.609 139.133 238.289 139.133 238.977C139.133 239.336 139.055 239.57 138.898 239.68C138.758 239.789 138.469 239.844 138.031 239.844H132.734C132.641 239.844 132.594 239.898 132.594 240.008C132.594 240.57 132.695 241.102 132.898 241.602C133.117 242.102 133.43 242.508 133.836 242.82C134.258 243.133 134.766 243.289 135.359 243.289C135.891 243.289 136.383 243.211 136.836 243.055C137.148 242.961 137.391 242.875 137.562 242.797C137.734 242.719 137.891 242.633 138.031 242.539C138.188 242.43 138.367 242.297 138.57 242.141C138.711 242.203 138.781 242.352 138.781 242.586C138.781 242.789 138.75 242.945 138.688 243.055C138.594 243.305 138.344 243.594 137.938 243.922C137.547 244.25 137.062 244.539 136.484 244.789C135.922 245.039 135.312 245.164 134.656 245.164ZM132.758 238.555H135.734C135.953 238.555 136.062 238.406 136.062 238.109C136.062 237.516 135.898 236.984 135.57 236.516C135.258 236.047 134.852 235.812 134.352 235.812C133.898 235.812 133.539 235.977 133.273 236.305C133.023 236.617 132.844 236.969 132.734 237.359C132.641 237.75 132.594 238.07 132.594 238.32C132.594 238.477 132.648 238.555 132.758 238.555Z" fill="#212529"/>
<path d="M50.6 282.465C50.39 283.025 50.09 283.51 49.7 283.92C49.31 284.32 48.85 284.625 48.32 284.835C47.8 285.045 47.23 285.15 46.61 285.15C45.67 285.15 44.855 284.945 44.165 284.535C43.485 284.115 42.955 283.525 42.575 282.765C42.205 282.005 42.02 281.1 42.02 280.05C42.02 279 42.205 278.095 42.575 277.335C42.955 276.575 43.485 275.99 44.165 275.58C44.855 275.16 45.66 274.95 46.58 274.95C47.22 274.95 47.79 275.04 48.29 275.22C48.79 275.39 49.215 275.65 49.565 276C49.925 276.34 50.21 276.76 50.42 277.26L49.235 277.815C49.015 277.245 48.695 276.815 48.275 276.525C47.865 276.225 47.33 276.075 46.67 276.075C46 276.075 45.41 276.235 44.9 276.555C44.39 276.865 43.99 277.315 43.7 277.905C43.42 278.495 43.28 279.21 43.28 280.05C43.28 280.88 43.415 281.595 43.685 282.195C43.955 282.785 44.34 283.24 44.84 283.56C45.34 283.87 45.93 284.025 46.61 284.025C47.27 284.025 47.845 283.86 48.335 283.53C48.825 283.19 49.18 282.685 49.4 282.015L50.6 282.465ZM52.9032 285V275.1H59.8482V276.225H54.1032V279.42H58.5732V280.545H54.1032V283.875H60.0732V285H52.9032ZM66.2389 274.95C67.1789 274.95 67.9889 275.16 68.6689 275.58C69.3589 275.99 69.8889 276.575 70.2589 277.335C70.6389 278.095 70.8289 279 70.8289 280.05C70.8289 281.1 70.6389 282.005 70.2589 282.765C69.8889 283.525 69.3589 284.115 68.6689 284.535C67.9889 284.945 67.1789 285.15 66.2389 285.15C65.2989 285.15 64.4839 284.945 63.7939 284.535C63.1139 284.115 62.5839 283.525 62.2039 282.765C61.8339 282.005 61.6489 281.1 61.6489 280.05C61.6489 279 61.8339 278.095 62.2039 277.335C62.5839 276.575 63.1139 275.99 63.7939 275.58C64.4839 275.16 65.2989 274.95 66.2389 274.95ZM66.2389 276.075C65.5589 276.075 64.9689 276.235 64.4689 276.555C63.9689 276.865 63.5839 277.32 63.3139 277.92C63.0439 278.51 62.9089 279.22 62.9089 280.05C62.9089 280.88 63.0439 281.595 63.3139 282.195C63.5839 282.785 63.9689 283.24 64.4689 283.56C64.9689 283.87 65.5589 284.025 66.2389 284.025C66.9289 284.025 67.5189 283.87 68.0089 283.56C68.5089 283.24 68.8939 282.785 69.1639 282.195C69.4339 281.595 69.5689 280.88 69.5689 280.05C69.5689 279.22 69.4339 278.51 69.1639 277.92C68.8939 277.32 68.5089 276.865 68.0089 276.555C67.5189 276.235 66.9289 276.075 66.2389 276.075Z" fill="#212529" fill-opacity="0.75"/>
<defs>
<filter id="filter0_d_6_455" x="0" y="0" width="305" height="325" filterUnits="userSpaceOnUse" color-interpolation-filters="sRGB">
<feFlood flood-opacity="0" result="BackgroundImageFix"/>
<feColorMatrix in="SourceAlpha" type="matrix" values="0 0 0 0 0 0 0 0 0 0 0 0 0 0 0 0 0 0 127 0" result="hardAlpha"/>
<feMorphology radius="1" operator="dilate" in="SourceAlpha" result="effect1_dropShadow_6_455"/>
<feOffset dx="3" dy="4"/>
<feGaussianBlur stdDeviation="6"/>
<feComposite in2="hardAlpha" operator="out"/>
<feColorMatrix type="matrix" values="0 0 0 0 0 0 0 0 0 0 0 0 0 0 0 0 0 0 0.25 0"/>
<feBlend mode="normal" in2="BackgroundImageFix" result="effect1_dropShadow_6_455"/>
<feBlend mode="normal" in="SourceGraphic" in2="effect1_dropShadow_6_455" result="shape"/>
</filter>
</defs>
</svg>
