<svg width="600" height="432" viewBox="0 0 600 432" fill="none" xmlns="http://www.w3.org/2000/svg">
<path d="M589.344 308.694C587.294 309.573 585.364 311.125 584.629 312.595C583.778 313.744 583.586 315.494 584.125 316.838C584.418 317.569 585.042 318.484 586.355 318.703C588.608 319.146 589.564 316.756 589.875 315.707C590.545 313.453 590.356 310.658 589.344 308.694ZM586.91 319.818C586.667 319.818 586.419 319.792 586.166 319.741C584.779 319.511 583.7 318.619 583.145 317.231C582.468 315.541 582.71 313.406 583.733 312.041C584.525 310.443 586.571 308.764 588.768 307.788C588.32 307.215 587.773 306.769 587.129 306.511C585.646 305.919 582.959 305.801 580.902 306.755C579.834 307.25 579.141 307.949 578.848 308.828C578.755 309.105 578.458 309.256 578.179 309.163C577.903 309.07 577.754 308.771 577.846 308.495C578.229 307.344 579.133 306.411 580.459 305.796C582.497 304.85 585.536 304.734 587.521 305.531C588.446 305.901 589.201 306.555 589.786 307.391C590.167 307.265 590.545 307.162 590.919 307.088C593.162 306.337 595.1 306.381 596.613 307.239C598.24 308.16 599.376 310.021 599.987 312.772C600.05 313.057 599.87 313.339 599.586 313.402C599.3 313.464 599.019 313.286 598.955 313.002C598.412 310.554 597.448 308.925 596.093 308.158C594.847 307.452 593.198 307.436 591.189 308.107C590.908 308.163 590.624 308.237 590.339 308.326C591.438 310.547 591.616 313.558 590.887 316.008C590.163 318.444 588.707 319.817 586.91 319.818Z" fill="#292929"/>
<path d="M144.922 335.019C144.577 335.019 144.216 335.096 143.854 335.251C141.705 336.166 140.896 337.948 140.595 339.281C140.339 340.425 140.35 341.697 140.591 342.908C141.078 342.9 141.57 342.841 142.061 342.729C144.437 342.153 146.647 340.293 147.087 338.496C147.323 337.233 147.008 336.093 146.237 335.474C145.862 335.173 145.408 335.019 144.922 335.019ZM148.414 350.329C145.824 350.329 143.409 349.303 141.57 347.405C140.754 346.484 140.136 345.261 139.762 343.936C138.395 343.817 137.082 343.347 135.924 342.544C133.903 341.146 132.539 338.857 132.183 336.267C131.781 333.056 132.888 331.081 134.622 328.432C134.783 328.188 135.11 328.12 135.354 328.28C135.598 328.44 135.666 328.767 135.506 329.012C133.858 331.527 132.866 333.217 133.231 336.128C133.546 338.42 134.747 340.445 136.524 341.676C137.434 342.305 138.451 342.699 139.515 342.845C139.292 341.566 139.296 340.246 139.565 339.05C140.074 336.793 141.414 335.142 143.44 334.279C144.666 333.756 145.959 333.896 146.898 334.651C147.977 335.517 148.435 337.038 148.12 338.719C147.578 340.931 145.081 343.084 142.303 343.758C141.821 343.866 141.338 343.933 140.859 343.956C141.192 345.001 141.697 345.957 142.344 346.688C144.07 348.467 146.398 349.379 148.862 349.263C151.462 349.13 153.876 347.884 155.487 345.844C155.668 345.615 156 345.576 156.228 345.756C156.458 345.937 156.497 346.269 156.316 346.497C154.516 348.778 151.82 350.169 148.916 350.317C148.748 350.325 148.58 350.329 148.414 350.329Z" fill="#292929"/>
<path d="M164.521 33.3971C164.502 33.433 164.483 33.4689 164.464 33.5048C163.171 36.0134 163.672 38.6117 165.872 40.8213C167.476 42.4321 168.991 43.0204 170.024 42.4384C171.106 41.829 171.581 40.0017 171.131 38.1881C170.864 37.1118 169.604 33.6273 164.521 33.3971ZM152.704 47.6488C152.414 47.6488 152.177 47.4132 152.176 47.1228C152.156 42.6158 153.897 38.1026 156.718 35.3448C158.712 33.396 161.195 32.3578 163.923 32.3303C166.061 28.9757 170.525 26.9108 174.443 27.5604C176.741 27.9417 178.753 29.1986 180.698 30.4143C184.297 32.6609 187.404 34.6033 191.401 30.3858C191.602 30.1745 191.936 30.165 192.148 30.3657C192.359 30.5664 192.369 30.9012 192.168 31.1125C187.579 35.9574 183.797 33.5957 180.139 31.3089C178.282 30.1492 176.36 28.9483 174.27 28.6018C171.005 28.0631 167.197 29.7109 165.172 32.3852C169.39 32.8035 171.544 35.4673 172.156 37.9325C172.726 40.2288 172.047 42.5102 170.544 43.3584C169.676 43.8485 167.816 44.2678 165.124 41.567C162.721 39.1546 162.082 36.2035 163.338 33.4087C161.104 33.5608 159.129 34.4639 157.456 36.1C154.832 38.6655 153.214 42.8873 153.232 47.1185C153.233 47.4101 152.998 47.6477 152.706 47.6488C152.705 47.6488 152.704 47.6488 152.704 47.6488Z" fill="#292929"/>
<path d="M587.053 181.558C584.941 181.558 582.944 182.467 581.712 183.989C580.493 185.496 580.097 187.459 580.567 189.667C581.21 192.69 583.682 194.644 586.862 194.644C587.786 194.644 588.717 194.476 589.627 194.145C591.188 193.577 592.646 192.122 593.431 190.348C594.098 188.839 594.189 187.332 593.687 186.104C592.484 183.26 590.003 181.558 587.053 181.558ZM586.862 195.7C583.163 195.7 580.286 193.417 579.533 189.886C578.853 186.691 579.896 184.555 580.891 183.325C582.321 181.557 584.625 180.502 587.053 180.502C590.442 180.502 593.286 182.444 594.663 185.698C595.278 187.2 595.182 189.001 594.397 190.776C593.499 192.804 591.809 194.475 589.988 195.137C588.962 195.511 587.91 195.7 586.862 195.7Z" fill="#FAAD3A"/>
<path d="M58.4093 325.909C56.2968 325.909 54.3005 326.818 53.069 328.34C51.849 329.847 51.4529 331.81 51.923 334.016C52.5673 337.04 55.0388 338.995 58.2181 338.995C59.1433 338.995 60.0739 338.827 60.9843 338.496C62.5444 337.928 64.002 336.474 64.7868 334.702C65.4554 333.191 65.5462 331.683 65.0434 330.455C63.8404 327.611 61.3593 325.909 58.4093 325.909ZM58.2181 340.051C54.5192 340.051 51.642 337.769 50.89 334.237C50.2087 331.042 51.2523 328.905 52.2483 327.676C53.6784 325.907 55.9821 324.852 58.4093 324.852C61.7976 324.852 64.6421 326.795 66.0194 330.048C66.6341 331.552 66.539 333.353 65.7532 335.128C64.8554 337.156 63.1665 338.826 61.3445 339.489C60.3179 339.861 59.2669 340.051 58.2181 340.051Z" fill="#40BDDE"/>
<path d="M580.246 230.13C579.27 230.13 578.33 230.418 577.526 230.964L561.938 241.553C560.868 242.279 560.144 243.385 559.898 244.668C559.653 245.949 559.92 247.245 560.647 248.315L571.234 263.9C572.138 265.233 573.648 266.029 575.274 266.029C576.251 266.029 577.193 265.739 577.998 265.192L593.582 254.608C595.803 253.099 596.383 250.065 594.875 247.843L584.288 232.259C583.384 230.926 581.871 230.13 580.246 230.13ZM575.274 267.085C573.298 267.085 571.461 266.116 570.359 264.495L559.772 248.909C558.888 247.605 558.563 246.028 558.861 244.469C559.158 242.91 560.04 241.564 561.344 240.678L576.932 230.089C577.911 229.425 579.057 229.073 580.246 229.073C582.222 229.073 584.061 230.042 585.163 231.665L595.75 247.25C597.583 249.953 596.877 253.645 594.176 255.482L578.593 266.067C577.61 266.733 576.463 267.085 575.274 267.085Z" fill="#40BDDE"/>
<path d="M107.596 373.569C106.67 373.569 105.904 373.886 105.381 374.488C104.704 375.27 104.446 376.516 104.656 378.001L107.719 399.64C108.037 401.884 109.196 403.224 110.819 403.224C111.717 403.224 112.712 402.817 113.695 402.045L130.902 388.571C132.287 387.486 132.959 386.236 132.79 385.051C132.622 383.866 131.63 382.851 129.996 382.193L109.726 374.03C108.967 373.724 108.251 373.569 107.596 373.569ZM110.819 404.28C108.654 404.28 107.067 402.559 106.674 399.789L103.611 378.149C103.353 376.332 103.69 374.826 104.583 373.797C105.778 372.42 107.845 372.133 110.121 373.05L130.391 381.214C132.39 382.017 133.613 383.329 133.837 384.903C134.059 386.477 133.249 388.076 131.553 389.403L114.346 402.877C113.176 403.795 111.956 404.28 110.819 404.28Z" fill="#FAAD3A"/>
<path d="M274.564 11.8285C273.764 11.8285 272.858 12.1221 271.942 12.6767L253.246 23.9952C251.741 24.9057 250.925 26.0665 250.951 27.2632C250.976 28.4599 251.839 29.5858 253.381 30.435L272.533 40.9646C274.334 41.9542 276.018 41.9363 277.017 40.916C277.718 40.2009 278.072 39.0633 278.043 37.6258L277.586 15.7788C277.536 13.3421 276.377 11.8285 274.564 11.8285ZM275.042 42.7601C274.089 42.7601 273.073 42.4676 272.023 41.8898L252.873 31.3603C250.985 30.3231 249.927 28.876 249.894 27.2853C249.861 25.6957 250.857 24.2064 252.699 23.0911L271.395 11.7725C272.491 11.1092 273.557 10.7723 274.564 10.7723C276.978 10.7723 278.579 12.7284 278.642 15.7566L279.099 37.6047C279.135 39.3316 278.676 40.7322 277.772 41.6553C277.064 42.3778 276.121 42.7601 275.042 42.7601Z" fill="#FDCA81"/>
<path d="M374.996 167.834C329.173 167.834 284.95 190.88 250.472 232.729C202.891 290.477 192.905 319.418 187.54 334.966C187.261 335.772 186.995 336.547 186.735 337.288C179.939 356.709 180.263 373.446 187.701 387.033C196.529 403.162 215.365 414.74 243.688 421.448C268.762 427.387 306.588 430.659 350.199 430.66C350.203 430.66 350.212 430.66 350.217 430.66C419.03 430.66 502.702 422.158 534.532 403.163C551.742 392.892 560.689 366.799 557.881 335.066C553.334 283.663 515.784 211.447 424.925 177.086C408.691 170.946 391.892 167.834 374.996 167.834ZM350.217 431.716C350.208 431.716 350.207 431.716 350.199 431.716C306.509 431.715 268.597 428.433 243.444 422.476C214.819 415.696 195.752 403.942 186.775 387.54C179.188 373.679 178.838 356.655 185.738 336.94C185.998 336.198 186.263 335.427 186.541 334.621C191.928 319.01 201.954 289.952 249.656 232.056C284.34 189.96 328.852 166.778 374.996 166.778C392.02 166.778 408.945 169.913 425.298 176.097C466.065 191.515 500.156 216.299 523.885 247.772C543.854 274.258 556.302 305.226 558.934 334.972C561.777 367.113 552.634 393.589 535.072 404.07C503.073 423.167 419.172 431.716 350.217 431.716Z" fill="#292929"/>
<path d="M142.736 124.33C144.837 127.769 146.554 133.885 147.512 140.574C148.183 145.254 149.424 145.733 154.009 147.835C158.596 149.937 159.648 153.95 157.164 156.243C153.625 159.509 153.629 157.725 153.151 161.402C152.831 163.856 153.497 165.814 150.196 164.758C148.9 164.343 146.22 162.748 145.839 163.042C144.696 163.925 145.047 167.267 149.404 169.775C150.993 170.69 152.309 170.567 150.905 177.837C149.682 184.168 142.019 185.146 134.422 183.712C126.826 182.28 128.403 188.013 125.394 196.182C122.384 204.352 121.954 208.938 126.109 212.378C130.266 215.818 133.563 232.3 133.133 236.313C132.703 240.326 118.37 248.638 106.187 235.166C99.5954 225.994 92.1416 208.364 92.1416 208.364C92.1416 208.364 99.8806 197.615 99.738 187.152C99.5954 176.69 95.1519 137.275 109.627 126.096C124.103 114.918 141.302 121.56 142.736 124.33Z" fill="#FEFEFE"/>
<path d="M92.7421 208.429C93.7096 210.68 100.575 226.453 106.616 234.859C111.967 240.772 117.471 242.021 121.14 242.021C127.514 242.021 132.39 238.282 132.607 236.257C133.022 232.38 129.694 216.033 125.771 212.786C121.225 209.022 121.956 203.983 124.897 196C125.699 193.827 126.168 191.834 126.584 190.076C127.556 185.948 128.261 182.965 132.343 182.965C132.991 182.965 133.704 183.04 134.52 183.194C136.519 183.572 138.424 183.763 140.182 183.763C144.306 183.763 149.425 182.717 150.386 177.738C151.586 171.523 150.791 171.107 149.588 170.477C149.443 170.4 149.293 170.322 149.139 170.233C146.533 168.733 144.895 166.656 144.761 164.68C144.701 163.79 144.976 163.043 145.516 162.624C145.974 162.27 146.771 162.616 148.46 163.424C149.157 163.758 149.878 164.102 150.356 164.256C150.912 164.434 151.359 164.523 151.683 164.523C152.308 164.523 152.424 164.266 152.515 162.687C152.538 162.265 152.566 161.81 152.627 161.336C152.945 158.889 153.071 158.624 154.304 157.814C154.825 157.473 155.612 156.957 156.804 155.855C157.695 155.033 158.084 153.944 157.9 152.787C157.622 151.04 156.085 149.368 153.789 148.316L153.521 148.193C149.157 146.195 147.687 145.523 146.989 140.649C145.997 133.724 144.282 127.877 142.284 124.605C141.614 123.315 135.981 120.364 128.021 120.364C123.411 120.364 116.534 121.432 109.949 126.515C97.7053 135.972 99.2675 166.545 100.018 181.238C100.14 183.622 100.245 185.682 100.266 187.146C100.399 196.914 93.923 206.724 92.7421 208.429ZM121.14 243.077C117.256 243.077 111.443 241.766 105.795 235.521C99.2073 226.359 91.7292 208.748 91.6553 208.571C91.5835 208.401 91.6046 208.207 91.7123 208.057C91.7894 207.951 99.3478 197.324 99.2094 187.161C99.1893 185.716 99.0848 183.666 98.9633 181.292C98.2028 166.419 96.6217 135.473 109.304 125.68C116.124 120.413 123.246 119.307 128.021 119.307C135.779 119.307 142.195 122.138 143.203 124.088C145.256 127.444 147.023 133.438 148.035 140.5C148.651 144.802 149.67 145.268 153.96 147.232L154.229 147.356C156.886 148.573 158.604 150.493 158.942 152.621C159.184 154.139 158.679 155.562 157.522 156.631C156.265 157.792 155.433 158.336 154.884 158.697C153.973 159.296 153.956 159.307 153.674 161.472C153.616 161.92 153.591 162.35 153.569 162.747C153.474 164.414 153.319 166.315 150.035 165.262C149.487 165.086 148.733 164.726 148.004 164.377C147.368 164.072 146.437 163.627 146.07 163.548C145.879 163.767 145.784 164.152 145.815 164.608C145.901 165.862 146.957 167.758 149.668 169.319C149.807 169.399 149.945 169.471 150.078 169.542C151.799 170.443 152.709 171.277 151.423 177.939C150.566 182.376 146.574 184.819 140.182 184.819C138.359 184.819 136.388 184.621 134.325 184.233C133.583 184.092 132.917 184.021 132.343 184.021C129.227 184.021 128.641 185.952 127.611 190.319C127.189 192.106 126.711 194.132 125.889 196.366C122.691 205.044 122.832 208.981 126.445 211.972C130.779 215.558 134.111 232.133 133.657 236.371C133.368 239.071 127.984 243.077 121.14 243.077Z" fill="#292929"/>
<path d="M99.3564 307.02C102.032 308.168 127.257 309.504 127.257 309.504C127.257 309.504 138.341 274.153 133.756 233.639C124.582 241.665 114.262 239.753 103.944 231.345C110.439 251.22 107.384 292.113 99.3564 307.02Z" fill="#292929"/>
<path d="M138.167 150.177C138.726 151.965 140.005 153.158 141.023 152.841C142.042 152.522 142.415 150.814 141.858 149.025C141.3 147.238 140.02 146.045 139.004 146.365C137.984 146.683 137.608 148.389 138.167 150.177Z" fill="#292929"/>
<path d="M139.883 147.22C139.834 147.22 139.784 147.214 139.734 147.199C139.454 147.117 139.295 146.823 139.377 146.543L140.333 143.294C140.415 143.015 140.709 142.853 140.989 142.937C141.269 143.019 141.428 143.313 141.346 143.592L140.39 146.842C140.322 147.071 140.112 147.22 139.883 147.22Z" fill="#292929"/>
<path d="M114.453 255.041C111.503 233.283 101.775 218.888 93.1712 205.551C91.851 203.505 90.6299 203.796 90.068 203.908C85.954 204.725 81.3626 206.656 82.5393 209.177C82.7896 209.71 83.1719 210.258 83.6493 210.868C81.8643 211.228 79.7276 211.676 77.1895 212.235C67.6327 214.335 61.7199 218.116 55.7956 224.039C49.8712 229.962 19.5775 266.695 11.1699 276.058C22.254 297.463 41.2724 300.615 41.2724 300.615C41.2724 300.615 58.6526 283.132 69.5445 269.755C69.1611 272.429 67.826 297.274 64.0035 307.019C70.7538 310.936 89.5177 310.749 99.9533 310.302C101.666 311.874 108.339 310.459 108.339 310.459C108.339 310.459 117.51 277.591 114.453 255.041Z" fill="#40BDDE"/>
<path d="M82.252 130.254C77.236 132.117 71.6464 136.703 68.6361 156.338C67.1807 165.834 63.6571 176.028 64.3204 185.712C64.9415 194.775 72.7914 197.247 80.7933 198.847C87.8426 200.257 115.241 206.79 116.969 194.993C118.984 181.23 97.2916 174.319 100.403 161.545C101.036 158.949 103.644 155.722 106.329 155.121C109.755 154.356 110.773 157.284 113.438 159.08C116.684 161.269 118.627 159.99 120.577 156.705C122.42 153.6 121.73 148.627 121.438 145.141C121.056 140.574 120.513 138.924 124.476 137.617C129.833 135.851 134.42 132.221 129.264 126.097C136.143 134.266 139.582 132.977 145.171 129.394C150.761 125.81 151.048 122.514 148.898 116.352C146.747 110.188 140.155 100.729 128.546 102.162C116.937 103.595 118.083 106.748 104.181 109.615C90.2782 112.482 81.3922 116.638 82.252 130.254Z" fill="#292929"/>
<path d="M134.136 140.957C134.077 140.957 134.018 140.947 133.958 140.926C133.684 140.828 133.54 140.526 133.638 140.251C134.013 139.2 136.133 133.907 141.051 132.889C141.336 132.831 141.616 133.014 141.675 133.299C141.734 133.584 141.551 133.864 141.264 133.924C136.901 134.826 134.974 139.648 134.633 140.606C134.556 140.822 134.352 140.957 134.136 140.957Z" fill="#292929"/>
<path d="M99.5479 309.841C99.5374 309.841 99.5257 309.841 99.5152 309.84C99.2236 309.822 99.0029 309.572 99.0208 309.281C99.0494 308.822 99.1465 307.57 99.2881 305.75C100.115 295.126 102.314 266.903 101.507 260.457C100.663 253.71 102.492 252.019 105.261 249.46C105.606 249.141 105.97 248.804 106.348 248.441C104.985 247.571 101.407 245.298 98.6987 243.644C95.8701 241.916 95.248 239.569 93.5844 233.298C93.088 231.426 92.5251 229.304 91.7783 226.714C89.5085 218.832 86.2753 214.905 84.1354 212.307C83.6105 211.67 83.1574 211.12 82.7792 210.592C82.6102 210.354 82.6641 210.024 82.9018 209.855C83.1405 209.685 83.47 209.739 83.639 209.977C83.996 210.476 84.4386 211.013 84.9508 211.635C87.1457 214.301 90.4633 218.33 92.7933 226.422C93.5433 229.023 94.1316 231.242 94.6048 233.027C96.1891 239 96.7827 241.235 99.2501 242.742C102.655 244.824 107.428 247.877 107.477 247.908C107.611 247.994 107.7 248.137 107.717 248.296C107.734 248.454 107.679 248.613 107.566 248.726C107.006 249.285 106.475 249.777 105.977 250.236C103.27 252.739 101.779 254.117 102.556 260.325C103.375 266.878 101.171 295.179 100.341 305.832C100.201 307.644 100.103 308.89 100.075 309.347C100.057 309.626 99.8257 309.841 99.5479 309.841Z" fill="#FEFEFE"/>
<path d="M173.311 240.708L169.298 252.556C169.298 252.556 159.743 235.167 153.627 227.523C147.912 220.379 139.696 215.907 133.186 213.479C128.793 206.21 122.588 205.161 122.588 205.161C122.588 205.161 122.096 206.882 123.005 209.059C123.914 211.235 133.752 228.287 131.46 255.423C129.168 282.559 121.332 309.504 121.332 309.504H127.257C127.257 309.504 127.302 309.354 127.387 309.078C131.844 309.651 140.919 310.565 141.206 308.549C141.589 305.874 146.749 284.471 149.806 277.782C158.978 294.788 167.489 298.259 179.803 293.086C188.605 289.389 195.861 259.819 196.817 248.162C197.007 247.97 173.311 240.708 173.311 240.708Z" fill="#40BDDE"/>
<path d="M127.257 310.032C127.206 310.032 127.154 310.025 127.102 310.01C126.824 309.924 126.666 309.629 126.752 309.35C126.87 308.962 138.613 270.491 140.311 263.141C142.054 255.579 141.998 254.672 140.862 252.45C139.432 249.658 138.205 247.207 138.205 247.207C138.083 246.962 138.168 246.665 138.4 246.52C139.69 245.724 142.915 243.185 142.367 241.03C141.147 236.244 136.5 220.385 133.102 214.357L132.992 214.164C132.847 213.911 132.936 213.588 133.188 213.443C133.442 213.298 133.764 213.387 133.91 213.64L134.023 213.839C137.471 219.958 142.162 235.947 143.391 240.77C144.112 243.601 140.591 246.307 139.36 247.153C139.769 247.968 140.728 249.873 141.801 251.969C143.13 254.563 143.078 255.842 141.339 263.378C139.635 270.765 127.881 309.27 127.762 309.659C127.693 309.885 127.484 310.032 127.257 310.032Z" fill="#FEFEFE"/>
<path d="M149.805 278.309C149.732 278.309 149.658 278.294 149.587 278.262C149.322 278.14 149.205 277.827 149.326 277.562C157.917 258.758 154.715 251.989 152.802 247.945C152.469 247.241 152.181 246.633 151.981 246.034C151.89 245.759 152.039 245.459 152.316 245.366C152.595 245.274 152.893 245.425 152.985 245.7C153.163 246.239 153.438 246.82 153.757 247.493C155.748 251.703 159.082 258.749 150.286 278.001C150.197 278.194 150.006 278.309 149.805 278.309Z" fill="#292929"/>
<path d="M172.406 260.25C172.208 260.25 172.019 260.14 171.928 259.95C171.907 259.906 169.798 255.489 167.904 250.944C167.792 250.675 167.919 250.366 168.188 250.253C168.457 250.146 168.767 250.267 168.879 250.538C170.762 255.059 172.861 259.45 172.882 259.494C173.008 259.757 172.896 260.072 172.633 260.198C172.559 260.234 172.482 260.25 172.406 260.25Z" fill="#292929"/>
<path d="M174.84 236.169C176.989 229.433 180.143 211.231 180.859 204.495C181.575 197.759 177.563 188.299 182.293 182.28C187.022 176.261 190.033 173.25 191.322 170.24C192.612 167.231 195.622 166.801 197.198 169.81C198.775 172.82 196.338 178.124 192.756 181.85C201.498 176.261 202.214 178.266 204.937 173.968C207.661 169.667 212.964 158.631 216.405 158.918C219.27 155.048 222.567 157.198 223.14 162.501C224.86 162.359 226.437 166.371 225.291 172.391C229.446 174.827 229.016 183.712 223.14 190.449C217.263 197.186 206.084 201.198 203.647 206.645C201.212 212.091 197.198 244.052 197.198 244.052L174.84 236.169Z" fill="#FEFEFE"/>
<path d="M175.494 235.84L196.756 243.337C197.355 238.64 200.89 211.517 203.165 206.429C204.535 203.367 208.478 200.778 212.652 198.038C216.296 195.645 220.063 193.171 222.741 190.102C226.222 186.112 228.043 180.907 227.38 176.84C227.072 174.951 226.258 173.569 225.023 172.845C224.83 172.732 224.729 172.511 224.77 172.291C225.608 167.894 224.964 164.695 223.954 163.475C223.784 163.27 223.521 163.026 223.228 163.026C222.959 163.026 222.643 162.826 222.614 162.558C222.285 159.516 221.01 157.472 219.443 157.472C218.585 157.472 217.681 158.08 216.828 159.232C216.719 159.379 216.544 159.463 216.36 159.444C216.36 159.444 216.359 159.444 216.358 159.444C213.885 159.444 210.025 166.211 207.471 170.69C206.703 172.038 205.977 173.312 205.383 174.249C203.74 176.843 202.747 177.281 200.571 178.24C198.958 178.949 196.749 179.922 193.039 182.294C192.814 182.437 192.515 182.39 192.346 182.185C192.177 181.978 192.189 181.677 192.375 181.483C195.62 178.108 198.25 172.955 196.73 170.055C196.132 168.913 195.301 168.285 194.389 168.285C193.353 168.285 192.387 169.093 191.807 170.448C190.882 172.605 189.166 174.686 186.568 177.838C185.436 179.209 184.154 180.764 182.707 182.606C179.748 186.373 180.378 191.634 180.987 196.723C181.321 199.52 181.638 202.162 181.384 204.55C180.707 210.914 177.67 228.647 175.494 235.84ZM197.198 244.58C197.138 244.58 197.079 244.57 197.021 244.551L174.664 236.667C174.395 236.572 174.249 236.28 174.336 236.008C176.502 229.222 179.644 210.916 180.334 204.438C180.575 202.168 180.266 199.585 179.939 196.848C179.304 191.546 178.647 186.063 181.877 181.953C183.331 180.102 184.618 178.542 185.752 177.166C188.294 174.084 189.972 172.049 190.836 170.033C191.588 168.276 192.917 167.228 194.389 167.228C195.693 167.228 196.888 168.08 197.665 169.565C199.076 172.256 197.638 176.329 195.176 179.762C197.432 178.468 199.004 177.776 200.147 177.272C202.237 176.351 203.019 176.007 204.491 173.684C205.072 172.767 205.791 171.504 206.554 170.167C210.174 163.818 213.399 158.546 216.144 158.388C217.423 156.764 218.636 156.416 219.443 156.416C221.525 156.416 223.136 158.598 223.612 162.016C223.954 162.099 224.364 162.314 224.767 162.801C225.824 164.078 226.728 167.276 225.873 172.136C227.21 173.059 228.088 174.618 228.423 176.67C229.134 181.034 227.216 186.579 223.538 190.796C220.764 193.975 216.935 196.489 213.232 198.921C209.19 201.574 205.373 204.08 204.13 206.86C201.753 212.173 197.762 243.8 197.721 244.119C197.701 244.276 197.612 244.418 197.475 244.502C197.391 244.554 197.295 244.58 197.198 244.58Z" fill="#292929"/>
<path d="M197.914 191.694C197.675 191.694 197.459 191.531 197.401 191.288C196.676 188.245 193.953 183.283 192.463 182.289C192.22 182.127 192.154 181.799 192.316 181.556C192.478 181.313 192.805 181.248 193.048 181.411C194.904 182.647 197.698 187.973 198.428 191.043C198.496 191.328 198.321 191.612 198.037 191.679C197.996 191.69 197.955 191.694 197.914 191.694Z" fill="#292929"/>
<path d="M215.401 188.828C215.207 188.828 215.021 188.722 214.928 188.537C214.395 187.469 208.049 179.861 205.63 179.055C205.354 178.963 205.204 178.664 205.296 178.386C205.389 178.111 205.686 177.961 205.965 178.053C208.739 178.978 215.294 186.906 215.873 188.064C216.003 188.326 215.898 188.642 215.637 188.772C215.561 188.81 215.481 188.828 215.401 188.828Z" fill="#292929"/>
<path d="M214.111 189.545C213.911 189.545 213.72 189.431 213.631 189.238C213.509 188.974 213.624 188.659 213.889 188.537C215.548 187.772 219.198 183.091 220.184 177.742C220.689 175 221.533 173.296 222.762 172.534C223.9 171.829 225.159 172.071 226.008 172.313C226.289 172.393 226.45 172.685 226.371 172.965C226.29 173.245 225.998 173.405 225.717 173.329C224.661 173.026 223.922 173.058 223.319 173.432C222.37 174.021 221.665 175.535 221.223 177.934C220.208 183.441 216.403 188.54 214.331 189.496C214.259 189.529 214.184 189.545 214.111 189.545Z" fill="#292929"/>
<path d="M212.247 184.814C212.099 184.814 211.954 184.753 211.849 184.632C211.657 184.412 211.68 184.079 211.901 183.887C215.025 181.171 216.305 177.21 217.462 171.287C218.525 165.834 220.599 162.8 223.622 162.269C223.907 162.215 224.183 162.408 224.233 162.696C224.284 162.984 224.092 163.257 223.804 163.308C221.256 163.757 219.471 166.509 218.499 171.488C217.298 177.638 215.947 181.769 212.594 184.685C212.493 184.772 212.371 184.814 212.247 184.814Z" fill="#292929"/>
<path d="M208.95 181.089C208.846 181.089 208.74 181.058 208.647 180.993C208.408 180.825 208.351 180.495 208.519 180.256C210.074 178.047 212.027 171.73 213.594 166.653C214.768 162.857 215.781 159.579 216.514 158.235C216.653 157.979 216.974 157.884 217.23 158.025C217.487 158.164 217.581 158.485 217.441 158.741C216.759 159.992 215.712 163.379 214.604 166.965C212.931 172.38 211.034 178.518 209.383 180.865C209.28 181.011 209.117 181.089 208.95 181.089Z" fill="#292929"/>
<path d="M68.3974 271.43C68.277 271.43 68.1555 271.389 68.0562 271.304C67.8334 271.115 67.807 270.783 67.996 270.56C71.2165 266.772 77.6954 259.908 77.7609 259.839C77.9605 259.628 78.2943 259.617 78.5066 259.818C78.7189 260.018 78.7284 260.352 78.5277 260.565C78.4633 260.633 72.0034 267.477 68.8009 271.244C68.6963 271.368 68.5474 271.43 68.3974 271.43Z" fill="#292929"/>
<path d="M173.906 234.465C171.794 238.426 170.572 244.85 171.002 245.423C171.432 245.997 187.109 247.272 197.804 254.929C200.24 256.075 201.019 244.785 200.638 243.479C199.635 240.039 175.197 233.032 173.906 234.465Z" fill="#292929"/>
<path d="M114.262 254.614C114.138 254.614 114.015 254.571 113.915 254.484C113.866 254.443 109.051 250.262 106.811 248.77C106.569 248.608 106.503 248.28 106.665 248.038C106.826 247.795 107.153 247.729 107.397 247.891C109.693 249.42 114.409 253.513 114.609 253.687C114.828 253.879 114.851 254.211 114.66 254.432C114.556 254.552 114.409 254.614 114.262 254.614Z" fill="#FEFEFE"/>
<path d="M131.669 252.466C131.534 252.466 131.398 252.414 131.295 252.311C131.089 252.104 131.089 251.771 131.295 251.565C133.313 249.546 135.893 247.999 137.599 246.974C138.023 246.721 138.385 246.503 138.662 246.324C138.907 246.164 139.235 246.234 139.393 246.478C139.552 246.723 139.482 247.049 139.238 247.209C138.953 247.394 138.579 247.618 138.143 247.879C136.48 248.878 133.968 250.385 132.043 252.311C131.939 252.414 131.804 252.466 131.669 252.466Z" fill="#FEFEFE"/>
<path d="M116.318 177.404C115.76 172.193 111.652 166.852 106.776 169.968C102.535 172.676 101.244 179.967 105.126 183.423C106.778 184.894 109.452 185.582 111.687 185.145C115.441 184.409 116.696 180.936 116.318 177.404Z" fill="#FAAD3A"/>
<path d="M127.083 66.5492C123.231 66.5492 119.367 66.7182 115.596 67.052C56.7644 72.2613 19.9633 105.351 6.21751 165.401C0.17483 191.795 -5.00068 253.949 17.5667 277.61C41.7226 302.934 60.1115 305.753 99.3663 306.492C112.921 306.749 124.303 307.178 134.344 307.557C146.019 307.998 156.1 308.379 166.387 308.379C166.387 308.379 166.388 308.379 166.389 308.379C174.541 308.379 182.013 308.143 189.904 307.637L192.343 307.484C221.682 305.657 266.017 302.895 270.82 237.803C274.552 187.198 261.042 143.782 231.751 112.249C205.168 83.6326 166.04 66.5492 127.083 66.5492ZM166.389 309.435C166.388 309.435 166.388 309.435 166.387 309.435C156.08 309.435 145.989 309.054 134.304 308.612C124.268 308.234 112.891 307.804 99.3472 307.549C59.7788 306.803 41.2346 303.953 16.803 278.338C-6.06114 254.368 -0.896183 191.74 5.18769 165.165C19.0475 104.618 56.1634 71.2537 115.503 66C119.304 65.6641 123.2 65.493 127.083 65.493C166.328 65.493 205.745 82.7032 232.524 111.53C253.093 133.673 276.617 173.567 271.873 237.881C267.002 303.892 222.113 306.688 192.409 308.538L189.972 308.693C182.058 309.199 174.563 309.435 166.389 309.435Z" fill="#292929"/>
<path d="M181.067 91.9381C188.224 90.0707 211.101 85.7127 223.085 83.2232C235.068 80.7315 248.141 79.0204 249.853 79.7989C251.564 80.5773 232.577 104.543 223.707 114.036C220.751 116.059 216.704 112.324 216.704 112.324C208.301 121.039 198.806 124.307 197.252 124.619C195.695 124.929 194.916 115.282 194.76 109.522C194.605 103.765 195.627 102.643 190.871 100.341C176.086 93.1813 181.067 91.9381 181.067 91.9381Z" fill="#40BDDE"/>
<path d="M197.251 125.147C197.019 125.147 196.806 124.993 196.742 124.759C196.666 124.477 196.831 124.186 197.112 124.11C197.893 123.826 200.733 119.226 202.807 115.867C205.035 112.257 207.14 108.848 208.395 107.594C210.757 105.231 232.526 90.3709 241.767 84.117L196.514 102.077C196.243 102.184 195.936 102.052 195.827 101.781C195.72 101.51 195.852 101.204 196.123 101.096L245.923 81.3317C246.184 81.2261 246.484 81.3486 246.6 81.6064C246.715 81.8651 246.606 82.1683 246.354 82.295C244.816 83.1104 211.612 105.87 209.142 108.341C207.975 109.508 205.804 113.023 203.705 116.422C200.1 122.262 198.413 124.849 197.391 125.128C197.344 125.141 197.297 125.147 197.251 125.147Z" fill="#292929"/>
<path d="M217.638 113.475C217.53 113.475 217.421 113.442 217.327 113.374L217.099 113.207C213.908 110.875 209.937 107.964 209.005 108.439C208.744 108.568 208.427 108.463 208.296 108.202C208.165 107.941 208.271 107.625 208.532 107.494C209.97 106.776 212.817 108.767 217.723 112.354L217.949 112.52C218.186 112.693 218.237 113.024 218.064 113.258C217.961 113.4 217.8 113.475 217.638 113.475Z" fill="#292929"/>
<path d="M258.253 198.642C252.268 199.19 248.869 202.908 249.469 213.487C250.068 224.068 247.672 234.99 251.865 239.083C256.058 243.18 266.636 243.182 276.42 243.351C286.203 243.52 298.872 243.233 302.624 243.18C311.457 243.052 314.601 241.517 315.799 234.604C316.505 230.536 314.812 207.583 314.752 205.169C314.601 199.154 310.708 198.385 302.174 198.002C293.992 197.633 263.844 198.129 258.253 198.642Z" fill="#FAAD3A"/>
<path d="M282.283 226.653C282.244 226.653 282.204 226.651 282.165 226.651C277.955 226.588 274.53 223.046 272.017 219.966C267.375 214.27 256.93 202.596 254.392 200.425C254.17 200.236 254.144 199.902 254.334 199.681C254.522 199.459 254.856 199.435 255.078 199.623C257.65 201.821 268.171 213.575 272.837 219.297C275.204 222.199 278.406 225.538 282.18 225.595C284.881 225.612 287.703 223.974 290.576 220.659C298.484 211.536 310.22 200.043 310.337 199.928C310.548 199.724 310.882 199.728 311.084 199.936C311.289 200.144 311.285 200.479 311.076 200.683C310.958 200.798 299.254 212.26 291.375 221.35C288.285 224.916 285.309 226.653 282.283 226.653Z" fill="#292929"/>
<path d="M251.864 239.611C251.67 239.611 251.484 239.504 251.391 239.318C251.261 239.057 251.368 238.741 251.629 238.611C253.002 237.926 260.005 231.317 265.117 226.491C269.352 222.494 271.776 220.214 272.351 219.864C272.6 219.71 272.924 219.79 273.077 220.039C273.229 220.287 273.151 220.612 272.901 220.765C272.394 221.075 269.212 224.079 265.841 227.26C258.914 233.799 253.503 238.858 252.1 239.555C252.024 239.594 251.944 239.611 251.864 239.611Z" fill="#292929"/>
<path d="M311.559 241.318C311.38 241.318 311.203 241.225 311.104 241.057C310.767 240.485 306.834 236.223 303.029 232.101C298.007 226.661 292.814 221.036 292.029 219.789C291.873 219.542 291.947 219.215 292.193 219.06C292.443 218.904 292.767 218.981 292.922 219.225C293.656 220.391 299.048 226.232 303.805 231.385C308.651 236.635 311.641 239.884 312.016 240.523C312.163 240.775 312.079 241.097 311.826 241.246C311.743 241.295 311.651 241.318 311.559 241.318Z" fill="#292929"/>
<path d="M501.171 65.2547C498.266 52.9317 471.508 37.0893 460.066 41.4906C448.624 45.8909 463.234 50.9956 463.234 50.9956C445.631 47.827 437.181 49.9384 435.421 54.3407C433.66 58.741 441.054 60.5017 441.054 60.5017C429.083 60.8534 415.705 70.1841 417.641 76.6968C419.577 83.2106 427.499 80.8341 427.499 80.8341C416.232 89.8997 418.07 99.1195 429.826 98.0305C417.465 107.327 415.706 124.403 420.458 130.564C425.21 136.726 429.824 127.4 429.824 127.4C424.858 141.127 432.251 150.105 439.293 138.663C437.709 154.33 451.616 156.442 456.017 148.697C460.242 163.66 470.276 161.371 472.037 153.978C477.494 160.843 488.232 158.555 490.345 151.161C496.33 158.203 501.611 151.777 501.083 146.32C507.244 153.537 516.927 154.417 518.863 141.303C527.664 147.817 532.066 147.641 529.689 132.061C544.389 137.43 552.134 121.058 535.234 106.976C546.501 109.968 545.268 98.3495 529.161 91.3964C540.515 91.1323 541.923 83.3859 536.29 77.6654C530.658 71.9438 521.152 60.8534 501.171 65.2547Z" fill="#292929"/>
<path d="M445.221 95.3241C443.502 105.642 446.56 108.702 449.616 115.964C452.675 123.225 448.399 130.878 456.545 139.945C464.14 148.402 475.607 147.877 475.607 147.877L478.855 161.063L506.947 153.8L500.833 127.333C500.833 127.333 506.565 124.181 504.845 112.905C503.126 101.63 502.935 73.7305 475.607 77.9343C448.279 82.137 447.707 87.1055 445.221 95.3241Z" fill="#FEFEFE"/>
<path d="M475.607 147.349C475.848 147.349 476.062 147.514 476.119 147.751L479.239 160.418L506.317 153.419L500.317 127.453C500.265 127.223 500.371 126.985 500.577 126.871C500.63 126.843 505.96 123.712 504.322 112.985C504.146 111.828 503.986 110.496 503.81 109.041C502.414 97.4448 500.075 78.0355 480.892 78.0355C479.256 78.0355 477.505 78.1771 475.687 78.457C449.612 82.4675 448.243 87.0547 445.973 94.6542L445.727 95.477C444.386 103.552 446.044 107.046 448.338 111.88C448.911 113.085 449.502 114.331 450.103 115.76C451.281 118.555 451.402 121.337 451.531 124.282C451.74 129.083 451.957 134.048 456.938 139.594C463.574 146.981 473.321 147.355 475.208 147.355C475.716 147.355 475.591 147.349 475.607 147.349ZM478.855 161.592C478.76 161.592 478.667 161.566 478.584 161.517C478.463 161.445 478.376 161.328 478.342 161.19L475.194 148.411C473.199 148.41 463.074 148.003 456.152 140.299C450.919 134.472 450.683 129.083 450.476 124.328C450.351 121.48 450.233 118.79 449.13 116.17C448.538 114.763 447.952 113.528 447.384 112.333C445.097 107.513 443.289 103.706 444.701 95.2383L444.961 94.3521C447.35 86.3533 448.79 81.5253 475.527 77.4134C477.397 77.1251 479.202 76.9793 480.892 76.9793C501.012 76.9793 503.42 96.9705 504.859 108.914C505.032 110.357 505.192 111.679 505.367 112.827C506.896 122.852 502.7 126.669 501.429 127.575L507.462 153.682C507.526 153.96 507.356 154.24 507.079 154.312L478.987 161.575C478.943 161.586 478.899 161.592 478.855 161.592Z" fill="#292929"/>
<path d="M511.333 103.275C510.379 97.5161 509.209 92.0691 506.232 86.938C504.397 83.7746 502.74 80.5182 499.636 78.41C490.919 72.4856 479.18 72.8405 469.26 74.898C461.382 76.5331 452.612 79.3247 446.507 84.7558C444.478 86.5598 436.262 94.7509 441.583 97.1168C444.699 98.5037 448.133 95.5621 450.483 93.5774C450.588 93.8763 450.756 94.1974 451 94.565C452.585 96.9415 456.545 97.2056 459.186 96.6775C466.051 95.6212 472.653 91.1323 477.67 86.1152C476.614 87.6995 475.293 89.812 475.822 91.9244C476.878 94.301 479.254 94.565 481.367 94.565C485.856 94.301 490.081 90.6042 493.249 87.6995C490.609 92.7166 487.704 97.7337 487.44 103.543C487.176 106.184 487.44 109.088 488.496 111.465C489.817 114.633 492.721 114.633 495.362 112.785C494.042 117.01 493.249 120.971 495.098 125.196C496.199 127.714 499.674 131.973 504.516 131.093C508.383 130.39 509.099 121.32 510.501 118.154C513.117 112.245 512.398 109.707 511.333 103.275Z" fill="#292929"/>
<path d="M439.927 99.0138C437.563 99.0138 435.276 98.1731 434.639 95.7754C434.267 94.3823 434.488 92.6944 434.818 91.578C435.459 89.4043 437.434 86.3275 439.221 84.7199C439.435 84.5245 439.769 84.5414 439.967 84.759C440.161 84.9755 440.144 85.3103 439.926 85.5047C438.291 86.9771 436.415 89.8954 435.831 91.878C435.541 92.856 435.344 94.3221 435.66 95.504C436.454 98.4836 440.662 97.965 441.498 97.8287C444.002 97.4253 445.859 96.8517 447.341 96.0226C447.595 95.8821 447.918 95.9719 448.06 96.2265C448.203 96.481 448.112 96.8031 447.857 96.9447C446.264 97.8361 444.296 98.4477 441.665 98.8712C441.097 98.9631 440.509 99.0138 439.927 99.0138Z" fill="#FEFEFE"/>
<path d="M467.8 130.034C467.791 130.034 467.781 130.034 467.772 130.033C464.297 129.841 462.125 129.038 461.132 127.577C459.899 125.763 460.687 123.395 461.45 121.105C461.598 120.658 461.747 120.212 461.878 119.776C463.048 115.872 460.368 111.16 457.382 108.434C455.025 106.283 452.02 105.878 450.089 106.43C448.993 106.744 448.24 107.362 448.025 108.128C447.944 108.408 447.658 108.571 447.372 108.493C447.092 108.413 446.929 108.121 447.007 107.841C447.325 106.715 448.341 105.831 449.799 105.414C452.014 104.781 455.437 105.228 458.094 107.655C461.424 110.694 464.198 115.715 462.889 120.079C462.756 120.526 462.604 120.981 462.452 121.438C461.77 123.484 461.066 125.601 462.006 126.983C462.79 128.137 464.75 128.808 467.83 128.979C468.121 128.995 468.344 129.244 468.327 129.535C468.313 129.816 468.079 130.034 467.8 130.034Z" fill="#292929"/>
<path d="M466.184 106.69C466.069 106.69 465.953 106.652 465.856 106.576C465.628 106.394 465.59 106.061 465.77 105.833C467.615 103.504 472.956 98.6855 482.686 104.225C482.939 104.369 483.028 104.691 482.884 104.946C482.74 105.198 482.417 105.287 482.164 105.143C473.47 100.195 468.681 103.862 466.599 106.489C466.494 106.621 466.34 106.69 466.184 106.69Z" fill="#292929"/>
<path d="M478.592 114.853C479.476 116.504 479.434 118.252 478.493 118.756C477.554 119.262 476.071 118.333 475.184 116.681C474.298 115.033 474.346 113.285 475.283 112.782C476.225 112.277 477.705 113.204 478.592 114.853Z" fill="#292929"/>
<path d="M475.931 113.568C475.846 113.568 475.761 113.548 475.682 113.507L472.692 111.914C472.435 111.777 472.337 111.457 472.474 111.2C472.613 110.941 472.934 110.847 473.189 110.982L476.179 112.574C476.436 112.712 476.534 113.031 476.397 113.288C476.302 113.467 476.119 113.568 475.931 113.568Z" fill="#292929"/>
<path d="M458.671 116.573C459.554 118.223 459.511 119.971 458.57 120.476C457.631 120.981 456.148 120.051 455.263 118.399C454.376 116.752 454.422 115.004 455.361 114.501C456.304 113.996 457.783 114.921 458.671 116.573Z" fill="#292929"/>
<path d="M456.009 115.287C455.924 115.287 455.84 115.266 455.761 115.225L452.77 113.633C452.514 113.495 452.416 113.175 452.553 112.917C452.69 112.66 453.011 112.565 453.268 112.7L456.258 114.293C456.515 114.43 456.612 114.749 456.476 115.007C456.381 115.185 456.198 115.287 456.009 115.287Z" fill="#292929"/>
<path d="M465.744 132.817C467.433 136.101 469.45 137.963 471.35 137.963C474.074 137.963 476.232 134.239 476.969 128.377C470.348 132.59 468.132 132.986 465.744 132.817ZM471.35 139.019C468.83 139.019 466.354 136.68 464.38 132.431C464.299 132.258 464.317 132.057 464.428 131.901C464.537 131.747 464.719 131.664 464.911 131.682C465.452 131.736 466.01 131.792 466.559 131.792C468.597 131.792 471.012 130.99 477.326 126.892C477.496 126.781 477.712 126.779 477.887 126.882C478.06 126.987 478.158 127.181 478.139 127.383C477.479 134.561 474.877 139.019 471.35 139.019Z" fill="#292929"/>
<path d="M469.874 138.61C469.829 138.61 469.781 138.605 469.735 138.592C469.454 138.515 469.288 138.225 469.365 137.943C470.296 134.53 474.086 131.98 476.581 132.127C476.872 132.146 477.094 132.396 477.076 132.688C477.057 132.978 476.832 133.2 476.515 133.182C474.392 133.046 471.168 135.351 470.384 138.221C470.32 138.456 470.107 138.61 469.874 138.61Z" fill="#292929"/>
<path d="M406.382 228.375C411.398 223.504 435.333 191.83 444.649 180.506C453.965 169.183 464.714 168.897 479.333 168.753C475.734 154.33 476.69 154.011 477.407 154.153C478.123 154.297 491.78 157.276 505.397 147.816C509.005 146.848 508.858 161.302 512.298 163.164C515.737 165.028 538.669 160.297 549.993 171.621C561.315 182.943 569.197 209.745 569.197 209.745C563.034 219.634 521.183 250.734 468.584 236.403C467.581 231.959 460.414 225.079 458.265 216.338C449.379 227.947 443.072 236.545 443.072 236.545C443.072 236.545 414.838 234.682 406.382 228.375Z" fill="#FAAD3A"/>
<path d="M490.301 173.097C484.543 173.097 480.53 170.768 478.952 169.119C478.75 168.907 478.758 168.574 478.969 168.372C479.179 168.17 479.513 168.179 479.716 168.389C482.677 171.485 494.826 177.047 511.231 162.483C511.449 162.289 511.783 162.308 511.976 162.528C512.171 162.745 512.151 163.079 511.932 163.273C503.451 170.803 496.016 173.097 490.301 173.097Z" fill="#292929"/>
<path d="M487.265 172.962C487.038 172.962 486.829 172.815 486.759 172.587C486.569 171.959 482.065 157.161 481.591 155.065C481.525 154.78 481.704 154.497 481.989 154.433C482.274 154.368 482.555 154.547 482.621 154.831C483.087 156.89 487.723 172.127 487.771 172.28C487.855 172.559 487.698 172.855 487.419 172.939C487.367 172.955 487.316 172.962 487.265 172.962Z" fill="#292929"/>
<path d="M493.474 172.866C493.249 172.866 493.041 172.721 492.969 172.495L487.428 154.819C487.342 154.541 487.497 154.244 487.775 154.157C488.052 154.072 488.349 154.225 488.437 154.503L493.978 172.179C494.065 172.458 493.91 172.754 493.632 172.841C493.58 172.857 493.527 172.866 493.474 172.866Z" fill="#292929"/>
<path d="M499.972 170.954C499.75 170.954 499.543 170.813 499.47 170.591L493.928 153.679C493.837 153.402 493.988 153.103 494.266 153.012C494.538 152.921 494.841 153.074 494.933 153.35L500.475 170.262C500.566 170.539 500.413 170.837 500.137 170.928C500.082 170.946 500.027 170.954 499.972 170.954Z" fill="#292929"/>
<path d="M505.898 167.897C505.67 167.897 505.459 167.748 505.391 167.518L500.709 151.658C500.625 151.378 500.786 151.084 501.065 151.002C501.343 150.917 501.638 151.078 501.722 151.359L506.404 167.219C506.486 167.499 506.327 167.793 506.047 167.875C505.997 167.89 505.947 167.897 505.898 167.897Z" fill="#292929"/>
<path d="M475.759 148.504C475.703 148.504 475.647 148.503 475.592 148.502C475.301 148.495 475.07 148.252 475.078 147.961C475.085 147.669 475.297 147.444 475.619 147.445C479.362 147.576 489.419 144.29 495.835 136.366C496.018 136.138 496.351 136.105 496.577 136.287C496.804 136.471 496.839 136.804 496.656 137.03C490.104 145.123 479.785 148.504 475.759 148.504Z" fill="#292929"/>
<path d="M460.271 222.169C460.068 222.169 459.875 222.051 459.787 221.853C456.29 213.9 456.017 205.966 456.017 203.725C456.017 203.433 456.254 203.197 456.545 203.197C456.837 203.197 457.074 203.433 457.074 203.725C457.074 205.284 457.251 213.464 460.754 221.428C460.873 221.695 460.75 222.006 460.484 222.125C460.414 222.154 460.343 222.169 460.271 222.169Z" fill="#292929"/>
<path d="M537.237 232.201C537.008 232.201 536.798 232.051 536.73 231.821C536.682 231.659 531.979 215.563 529.998 209.478C529.908 209.202 530.06 208.904 530.336 208.813C530.619 208.724 530.911 208.875 531.002 209.152C532.989 215.251 537.697 231.362 537.743 231.524C537.825 231.805 537.665 232.098 537.385 232.179C537.335 232.194 537.285 232.201 537.237 232.201Z" fill="#292929"/>
<path d="M502.607 132.021C500.97 132.021 499.079 131.478 497.054 130.417C496.795 130.281 496.695 129.962 496.831 129.704C496.967 129.444 497.288 129.347 497.544 129.481C499.955 130.744 502.118 131.216 503.785 130.842C507.713 129.949 509.345 123.065 509.345 119.579C509.345 119.353 509.49 119.151 509.703 119.078C509.916 119.006 510.154 119.078 510.292 119.257C512.089 121.593 514.202 122.682 516.944 122.682C519.62 122.502 522.204 119.542 522.537 117.212C522.579 116.923 522.852 116.718 523.134 116.764C523.422 116.805 523.624 117.072 523.583 117.362C523.188 120.133 520.217 123.522 516.979 123.737C516.978 123.737 516.976 123.737 516.975 123.737C514.332 123.737 512.159 122.818 510.343 120.934C509.98 125.257 507.944 130.981 504.016 131.872C503.572 131.971 503.102 132.021 502.607 132.021Z" fill="#FEFEFE"/>
<path d="M461.814 1.34022C443.845 1.34022 423.54 3.69984 401.466 8.35252C354.802 18.1902 307.429 37.0143 309.885 102.046C312.38 168.126 336.762 207.465 384.425 222.315C406.305 229.132 443.948 236.011 478.725 236.012C478.729 236.012 478.733 236.012 478.737 236.012C510.093 236.012 550.232 230.513 563.409 204.319C576.674 177.948 578.966 147.573 578.553 126.735C578.078 102.818 573.662 78.5389 567.028 63.3714C559.606 46.4063 539.892 1.34022 461.814 1.34022ZM478.737 237.068C478.731 237.068 478.73 237.068 478.725 237.068C441.447 237.067 404.459 229.663 384.111 223.323C335.967 208.325 311.342 168.668 308.829 102.086C307.661 71.1421 318.218 47.2407 340.21 31.0456C358.414 17.6389 381.281 11.5286 401.247 7.31953C423.393 2.65101 443.771 0.283997 461.814 0.283997C494.35 0.283997 520.396 7.96383 539.232 23.108C554.73 35.5694 562.745 50.9449 567.995 62.9479C574.682 78.2347 579.132 102.668 579.61 126.713C580.025 147.671 577.716 178.229 564.351 204.793C550.934 231.466 510.39 237.068 478.737 237.068Z" fill="#292929"/>
<path d="M356.065 54.9901H314.661C307.464 54.9901 301.964 61.1806 302.404 68.664L303.52 87.6867C303.926 94.6197 309.734 100.057 316.468 99.9547L346.426 99.5037C347.99 104.152 349.135 108.675 352.132 108.454C354.276 108.244 355.194 103.709 355.804 99.3337C362.088 98.9439 367.262 93.5888 367.498 86.9864L368.172 68.3651C368.437 61.0422 363.031 54.9901 356.065 54.9901Z" fill="#FEFEFE"/>
<path d="M346.427 98.9754C346.654 98.9754 346.855 99.119 346.927 99.3356C347.084 99.7993 347.236 100.263 347.386 100.72C348.69 104.69 349.836 108.102 352.092 107.928C354.1 107.73 354.958 101.577 355.282 99.2595C355.317 99.0113 355.522 98.8212 355.772 98.8064C361.828 98.4304 366.747 93.2306 366.97 86.9672L367.644 68.3459C367.772 64.8265 366.504 61.4159 364.164 58.9908C362.004 56.7516 359.129 55.518 356.066 55.518H314.662C311.457 55.518 308.48 56.8034 306.277 59.1377C303.943 61.6145 302.723 65.0758 302.931 68.6331L304.048 87.6558C304.428 94.1463 309.915 99.4275 316.281 99.4275L316.461 99.4264L346.418 98.9754C346.422 98.9754 346.424 98.9754 346.427 98.9754ZM351.923 108.991C348.989 108.991 347.781 105.31 346.382 101.05C346.273 100.714 346.162 100.376 346.049 100.037L316.281 100.484C309.249 100.484 303.413 94.8762 302.994 87.7181L301.877 68.6955C301.652 64.8487 302.976 61.1001 305.51 58.4131C307.912 55.8644 311.162 54.4617 314.662 54.4617H356.066C359.417 54.4617 362.564 55.8095 364.924 58.2578C367.462 60.8878 368.838 64.5793 368.701 68.3839L368.027 87.0052C367.789 93.6562 362.661 99.2036 356.269 99.8257C355.597 104.491 354.614 108.741 352.183 108.98C352.088 108.987 352.005 108.991 351.923 108.991Z" fill="#292929"/>
<path d="M322.637 78.0544C322.637 80.3496 320.819 82.2106 318.578 82.2106C316.335 82.2106 314.518 80.3496 314.518 78.0544C314.518 75.7582 316.335 73.8981 318.578 73.8981C320.819 73.8981 322.637 75.7582 322.637 78.0544Z" fill="#40BDDE"/>
<path d="M338.685 78.0544C338.685 80.3496 336.867 82.2106 334.624 82.2106C332.383 82.2106 330.565 80.3496 330.565 78.0544C330.565 75.7582 332.383 73.8981 334.624 73.8981C336.867 73.8981 338.685 75.7582 338.685 78.0544Z" fill="#40BDDE"/>
<path d="M354.731 78.0545C354.731 80.3497 352.914 82.2108 350.672 82.2108C348.429 82.2108 346.611 80.3497 346.611 78.0545C346.611 75.7583 348.429 73.8983 350.672 73.8983C352.914 73.8983 354.731 75.7583 354.731 78.0545Z" fill="#40BDDE"/>
<path d="M489.231 412.701H448.12C447.829 412.701 447.592 412.465 447.592 412.173C447.592 411.881 447.829 411.645 448.12 411.645H489.231C489.523 411.645 489.759 411.881 489.759 412.173C489.759 412.465 489.523 412.701 489.231 412.701Z" fill="#292929"/>
<path d="M367.733 263.062C355.551 257.188 353.258 244.001 371.03 238.984C358.56 223.649 371.172 214.763 379.63 213.042C388.086 211.323 404.855 215.623 421.05 229.525C437.246 243.427 444.269 244.144 449.141 255.037C454.015 265.93 451.721 274.386 446.847 285.422C441.975 296.458 441.401 299.897 450.861 308.783C460.32 317.67 468.059 326.556 461.467 343.325C454.874 360.094 376.046 353.931 372.32 342.464C368.593 330.999 377.479 289.004 377.479 289.004L367.733 263.062Z" fill="#292929"/>
<path d="M358.704 331.714C356.841 323.545 359.004 304.788 375.329 295.453C387.237 288.645 393.532 298.177 393.532 298.177L395.395 329.565C395.395 329.565 362.717 331.858 358.704 331.714Z" fill="#292929"/>
<path d="M266.976 284.562C265.544 282.555 263.397 279.81 261.391 281.243C259.385 282.676 262.579 294.314 271.563 292.874C269.269 289.435 266.976 284.562 266.976 284.562Z" fill="#FEFEFE"/>
<path d="M262.567 281.372C262.265 281.372 261.981 281.471 261.699 281.672C261.306 281.952 261.122 283.462 261.796 285.566C262.864 288.902 265.596 292.468 270.058 292.468H270.059C270.255 292.468 270.456 292.461 270.658 292.448C268.531 289.09 266.52 284.832 266.499 284.786C265.8 283.822 264.051 281.372 262.567 281.372ZM270.059 293.524H270.058C265.023 293.524 261.917 289.41 260.789 285.888C260.204 284.062 259.932 281.637 261.085 280.813C261.546 280.483 262.045 280.316 262.567 280.316C264.349 280.316 265.946 282.209 267.407 284.254C267.478 284.385 269.759 289.215 272.003 292.581C272.104 292.73 272.121 292.92 272.048 293.085C271.976 293.25 271.825 293.367 271.647 293.395C271.111 293.481 270.576 293.524 270.059 293.524Z" fill="#292929"/>
<path d="M292.344 285.851C287.472 284.274 284.318 280.405 285.896 277.251C287.472 274.099 292.632 278.255 296.214 281.121C299.798 283.988 303.238 284.561 303.238 284.561C303.238 284.561 297.934 287.284 292.344 285.851Z" fill="#FEFEFE"/>
<path d="M287.701 276.651C287.077 276.651 286.654 276.917 286.368 277.488C285.902 278.419 285.893 279.437 286.343 280.51C287.194 282.54 289.556 284.394 292.507 285.349C293.512 285.605 294.614 285.74 295.755 285.74C298.153 285.74 300.283 285.145 301.602 284.67C300.221 284.213 298.085 283.294 295.885 281.534C293.27 279.441 289.781 276.651 287.701 276.651ZM295.755 286.796C294.526 286.796 293.335 286.651 292.214 286.363C288.947 285.307 286.337 283.223 285.369 280.918C284.803 279.568 284.822 278.219 285.423 277.015C285.888 276.085 286.676 275.595 287.701 275.595C290.152 275.595 293.658 278.4 296.476 280.654C299.967 283.446 303.292 284.035 303.326 284.041C303.549 284.079 303.724 284.256 303.76 284.481C303.794 284.706 303.681 284.927 303.479 285.03C303.339 285.103 299.992 286.796 295.755 286.796Z" fill="#292929"/>
<path d="M297.457 329.853C297.076 321.443 296.12 304.627 294.783 299.276C293.443 293.926 285.034 295.452 284.461 295.263C283.889 295.072 273.426 299.037 268.266 288.575C263.105 278.111 267.263 274.241 270.129 275.244C271.133 271.805 273.999 272.808 275.575 274.528C277.01 271.518 281.165 274.673 282.168 278.542C283.172 282.412 284.175 285.851 292.2 284.847C300.228 283.844 310.116 281.551 313.986 293.16C317.856 304.77 321.01 322.828 321.01 322.828C321.01 322.828 319.482 334.297 297.457 329.853Z" fill="#FEFEFE"/>
<path d="M297.965 329.416C301.14 330.035 304.058 330.348 306.642 330.348C318.66 330.348 320.323 323.604 320.473 322.829C320.226 321.438 317.159 304.349 313.485 293.328C310.876 285.502 305.503 284.499 301.115 284.499C298.794 284.499 296.391 284.822 294.068 285.135C293.459 285.217 292.857 285.297 292.266 285.371C291.309 285.492 290.417 285.552 289.615 285.552C283.441 285.552 282.494 281.897 281.657 278.675C280.954 275.961 278.726 273.857 277.279 273.857C276.741 273.857 276.34 274.151 276.052 274.755C275.977 274.914 275.827 275.025 275.653 275.05C275.477 275.077 275.305 275.015 275.186 274.885C274.39 274.017 273.381 273.478 272.552 273.478C271.651 273.478 271.007 274.123 270.636 275.392C270.595 275.532 270.499 275.648 270.37 275.714C270.241 275.781 270.09 275.789 269.955 275.743C268.919 275.383 267.758 275.857 267.084 276.942C266.419 278.012 265.25 281.263 268.739 288.342C271.023 292.97 274.668 295.316 279.576 295.316C281.283 295.316 282.72 295.03 283.577 294.858C283.984 294.777 284.229 294.727 284.403 294.727C284.459 294.727 284.574 294.743 284.628 294.761C284.825 294.752 285.041 294.741 285.312 294.726C285.778 294.702 286.395 294.67 287.091 294.67C291.792 294.67 294.551 296.178 295.295 299.149C296.732 304.897 297.681 323.251 297.965 329.416ZM306.642 331.404C303.878 331.404 300.753 331.056 297.353 330.371C297.115 330.322 296.941 330.12 296.929 329.877C296.671 324.191 295.716 305.193 294.27 299.406C293.659 296.965 291.244 295.727 287.091 295.727C286.416 295.727 285.819 295.757 285.367 295.782C284.843 295.808 284.553 295.82 284.376 295.786C284.262 295.794 284.06 295.84 283.784 295.894C282.888 296.073 281.388 296.372 279.576 296.372C274.308 296.372 270.233 293.757 267.793 288.807C264.202 281.527 265.245 277.899 266.186 276.385C267.017 275.05 268.414 274.373 269.785 274.612C270.513 272.72 271.809 272.422 272.552 272.422C273.508 272.422 274.565 272.887 275.475 273.691C275.934 273.113 276.556 272.801 277.279 272.801C279.381 272.801 281.905 275.422 282.679 278.409C283.527 281.675 284.259 284.496 289.615 284.496C290.373 284.496 291.221 284.439 292.135 284.324C292.723 284.251 293.322 284.17 293.927 284.089C296.285 283.771 298.723 283.443 301.115 283.443C305.488 283.443 311.634 284.433 314.488 292.993C318.326 304.507 321.499 322.556 321.53 322.738C321.539 322.79 321.54 322.845 321.533 322.899C321.521 322.984 320.24 331.404 306.642 331.404Z" fill="#292929"/>
<path d="M272.349 294.182C272.236 294.182 272.123 294.146 272.027 294.072C268.781 291.565 266.629 287.817 265.627 282.934C265.568 282.648 265.752 282.369 266.038 282.31C266.328 282.252 266.603 282.436 266.661 282.722C267.611 287.349 269.634 290.887 272.672 293.237C272.904 293.415 272.946 293.746 272.767 293.977C272.664 294.112 272.508 294.182 272.349 294.182Z" fill="#292929"/>
<path d="M285.896 292.256C285.888 292.256 285.88 292.256 285.872 292.256C282.92 292.127 280.475 290.865 278.606 288.502C275.029 283.984 274.624 276.703 275.057 274.429C275.11 274.144 275.384 273.953 275.674 274.01C275.961 274.064 276.149 274.34 276.094 274.628C275.701 276.692 276.116 283.655 279.434 287.846C281.105 289.958 283.286 291.087 285.918 291.2C286.209 291.214 286.435 291.46 286.423 291.75C286.41 292.034 286.177 292.256 285.896 292.256Z" fill="#292929"/>
<path d="M280.307 296.125C280.292 296.125 280.277 296.124 280.262 296.123C277.503 295.893 275.201 294.607 273.419 292.301C269.202 286.842 269.227 277.353 269.609 275.155C269.66 274.866 269.931 274.67 270.221 274.725C270.508 274.774 270.7 275.048 270.651 275.335C270.285 277.433 270.254 286.475 274.255 291.655C275.848 293.717 277.898 294.867 280.35 295.071C280.64 295.094 280.857 295.351 280.833 295.641C280.809 295.917 280.578 296.125 280.307 296.125Z" fill="#292929"/>
<path d="M379.631 339.311C384.36 341.46 398.119 346.334 423.058 340.027C422.198 357.227 420.478 393.488 420.478 393.488C420.478 393.488 399.696 405.241 385.793 400.367C381.924 393.774 379.631 339.311 379.631 339.311Z" fill="#292929"/>
<path d="M383.887 325.702C388.043 325.128 392.529 323.546 392.098 316.666C391.668 309.787 390.522 300.757 390.522 300.757C379.773 300.614 369.166 295.024 364.294 283.988C359.42 272.953 365.87 267.22 369.453 255.753C373.037 244.288 379.773 234.828 394.822 235.832C409.871 236.834 417.896 244.001 417.896 244.001C415.317 257.473 412.737 276.536 418.326 277.683C423.916 278.829 425.35 268.94 425.35 268.94C433.806 264.783 442.664 269.841 439.252 277.252C435.096 286.281 425.206 281.695 425.206 281.695C423.201 286.855 414.744 292.587 414.744 292.587C416.034 303.194 417.317 320.739 425.344 321.741C422.047 338.511 420.334 344.615 420.334 344.615C420.334 344.615 391.525 351.638 381.062 341.318C381.492 337.736 383.887 325.702 383.887 325.702Z" fill="#FEFEFE"/>
<path d="M381.619 341.122C385.334 344.639 391.734 346.419 400.646 346.419C409.583 346.419 418.203 344.56 419.906 344.172C420.277 342.771 421.925 336.344 424.72 322.168C417.439 320.57 415.774 306.115 414.551 295.489C414.438 294.504 414.328 293.552 414.22 292.651C414.195 292.454 414.283 292.261 414.448 292.149C414.53 292.094 422.79 286.449 424.713 281.503C424.766 281.367 424.874 281.26 425.009 281.205C425.144 281.15 425.296 281.155 425.427 281.215C425.452 281.227 427.877 282.331 430.74 282.331C434.451 282.331 437.154 280.548 438.772 277.031C439.753 274.9 439.71 272.897 438.646 271.238C437.335 269.192 434.677 267.971 431.533 267.971C429.644 267.971 427.676 268.428 425.827 269.297C425.552 270.877 424.008 278.303 419.207 278.303C418.886 278.303 418.553 278.268 418.22 278.2C413.511 277.233 413.208 265.796 417.319 244.207C415.922 243.079 408.097 237.246 394.785 236.358C382.281 235.527 374.395 241.709 369.957 255.911C368.93 259.195 367.646 262.067 366.515 264.6C363.646 271.018 361.381 276.086 364.776 283.774C369.191 293.772 379.058 300.076 390.528 300.228C390.791 300.232 391.012 300.428 391.045 300.69C391.057 300.78 392.198 309.815 392.624 316.633C393.076 323.86 388.221 325.576 384.332 326.17C383.939 328.16 382.067 337.697 381.619 341.122ZM400.646 347.476C391.295 347.476 384.581 345.53 380.691 341.695C380.575 341.579 380.519 341.417 380.538 341.256C380.964 337.693 383.27 326.09 383.368 325.598C383.412 325.377 383.591 325.209 383.814 325.179C387.876 324.618 391.974 323.172 391.57 316.699C391.201 310.785 390.29 303.19 390.054 301.275C378.362 300.956 368.333 294.447 363.81 284.201C360.225 276.083 362.574 270.826 365.551 264.169C366.725 261.54 367.94 258.821 368.948 255.595C373.49 241.059 381.942 234.442 394.856 235.304C409.913 236.308 417.914 243.309 418.247 243.606C418.385 243.731 418.45 243.918 418.414 244.099C414.543 264.317 414.549 276.368 418.432 277.165C418.696 277.22 418.957 277.247 419.207 277.247C423.561 277.247 424.815 268.948 424.826 268.864C424.852 268.691 424.96 268.543 425.116 268.467C427.181 267.452 429.4 266.915 431.533 266.915C435.039 266.915 438.03 268.318 439.536 270.668C440.784 272.618 440.854 275.034 439.731 277.472C437.481 282.361 433.599 283.387 430.74 283.387C428.408 283.387 426.392 282.73 425.488 282.382C423.356 287.026 416.743 291.834 415.305 292.84C415.403 293.648 415.501 294.495 415.601 295.369C416.815 305.912 418.476 320.351 425.408 321.217C425.553 321.235 425.685 321.313 425.771 321.431C425.856 321.549 425.89 321.698 425.86 321.843C422.598 338.442 420.859 344.696 420.841 344.757C420.789 344.941 420.644 345.083 420.458 345.128C420.362 345.151 410.707 347.476 400.646 347.476Z" fill="#292929"/>
<path d="M380.488 277.637C380.4 277.637 380.31 277.615 380.228 277.568C377.204 275.845 375.618 274.157 375.38 272.406C375.087 270.233 376.849 268.467 378.552 266.758C378.886 266.424 379.218 266.091 379.53 265.758C382.32 262.788 382.024 257.375 380.569 253.601C379.946 251.984 378.891 251.026 377.439 250.755C375.521 250.403 373.452 251.351 372.472 252.43C372.276 252.646 371.942 252.662 371.726 252.466C371.509 252.27 371.495 251.936 371.69 251.72C372.892 250.398 375.317 249.291 377.633 249.716C378.896 249.952 380.602 250.752 381.555 253.222C383.178 257.428 383.419 263.16 380.299 266.482C379.981 266.821 379.641 267.161 379.3 267.503C377.778 269.031 376.204 270.61 376.427 272.265C376.615 273.647 378.069 275.122 380.749 276.65C381.004 276.794 381.091 277.117 380.948 277.37C380.85 277.541 380.672 277.637 380.488 277.637Z" fill="#292929"/>
<path d="M406.383 259.77C406.213 259.77 406.046 259.687 405.945 259.535C400.372 251.224 394.45 252.369 391.414 253.796C391.153 253.919 390.838 253.806 390.712 253.541C390.588 253.277 390.702 252.962 390.966 252.839C393.658 251.579 400.589 249.648 406.821 258.948C406.984 259.19 406.92 259.518 406.677 259.68C406.587 259.741 406.485 259.77 406.383 259.77Z" fill="#292929"/>
<path d="M397.874 267.285C397.315 269.072 396.036 270.265 395.017 269.948C393.999 269.629 393.626 267.921 394.184 266.133C394.74 264.345 396.021 263.153 397.038 263.473C398.057 263.791 398.432 265.495 397.874 267.285Z" fill="#292929"/>
<path d="M397.306 264.642C397.078 264.642 396.867 264.494 396.8 264.264L395.843 261.015C395.761 260.734 395.921 260.442 396.2 260.359C396.484 260.278 396.775 260.435 396.856 260.716L397.813 263.965C397.895 264.245 397.735 264.539 397.456 264.621C397.405 264.636 397.356 264.642 397.306 264.642Z" fill="#292929"/>
<path d="M376.998 263.367C376.439 265.154 375.16 266.347 374.14 266.03C373.122 265.712 372.749 264.003 373.306 262.216C373.865 260.427 375.145 259.235 376.162 259.555C377.179 259.873 377.556 261.578 376.998 263.367Z" fill="#292929"/>
<path d="M376.429 260.724C376.202 260.724 375.99 260.577 375.923 260.346L374.967 257.096C374.885 256.815 375.044 256.523 375.325 256.44C375.602 256.357 375.899 256.516 375.98 256.797L376.936 260.048C377.018 260.327 376.859 260.621 376.579 260.703C376.528 260.718 376.479 260.724 376.429 260.724Z" fill="#292929"/>
<path d="M376.839 280.713C376.827 283.427 377.318 285.37 378.271 286.368C380.281 288.464 384.754 286.321 389.537 281.279C384.422 282.281 379.279 281.988 376.839 280.713ZM380.279 288.239C379.166 288.239 378.233 287.856 377.508 287.097C376.224 285.757 375.652 283.272 375.807 279.714C375.816 279.509 375.943 279.328 376.132 279.25C376.321 279.17 376.539 279.208 376.691 279.347C377.447 280.04 379.669 280.847 383.436 280.847C385.787 280.847 388.376 280.517 390.923 279.893C391.151 279.838 391.382 279.935 391.501 280.132C391.62 280.329 391.598 280.58 391.446 280.754C387.265 285.511 383.195 288.239 380.279 288.239Z" fill="#292929"/>
<path d="M378.054 287.288C377.964 287.288 377.874 287.264 377.791 287.217C377.538 287.072 377.45 286.749 377.596 286.497C378.838 284.336 383.883 282.988 386.895 284.008C387.171 284.102 387.32 284.402 387.226 284.678C387.133 284.955 386.83 285.101 386.556 285.009C383.83 284.084 379.433 285.42 378.512 287.023C378.413 287.193 378.236 287.288 378.054 287.288Z" fill="#292929"/>
<path d="M390.297 301.333C389.987 301.33 389.707 301.115 389.708 300.803C389.71 300.511 389.945 300.277 390.237 300.277C390.26 300.274 390.279 300.277 390.299 300.277C395.651 300.277 404.276 297.19 410.053 294.128C410.311 293.991 410.631 294.089 410.767 294.347C410.904 294.606 410.806 294.925 410.548 295.061C404.654 298.184 395.822 301.333 390.297 301.333Z" fill="#292929"/>
<path d="M297.075 327.416C299.511 328.275 311.407 328.275 321.01 322.828C322.586 331.572 328.462 357.656 328.462 357.656C336.632 348.77 347.954 338.309 353.114 333.865C358.274 329.421 366.157 325.121 373.896 325.409C381.636 325.695 385.648 325.265 385.648 325.265C385.648 325.265 379.486 336.158 382.639 366.399C385.792 396.641 386.795 400.653 386.795 400.653L376.19 399.651C376.19 399.651 378.339 392.914 371.89 385.175C365.44 377.434 363.576 372.562 362.717 366.829C355.837 373.853 337.492 393.344 322.156 393.488C306.821 393.631 301.374 379.872 299.225 362.673C297.075 345.474 297.075 327.416 297.075 327.416Z" fill="#40BDDE"/>
<path d="M415.177 393.3C410.877 394.589 392.385 400.081 383.929 399.507C375.473 398.934 366.73 394.776 359.85 396.497C352.971 398.216 341.171 406.888 342.007 410.327C342.651 412.979 345.804 411.546 345.804 411.546C346.951 413.983 349.244 412.692 349.244 412.692C350.391 415.13 355.695 413.696 358.848 410.972C362 408.249 365.869 406.816 370.744 408.537C375.616 410.256 383.212 412.692 392.098 413.123C400.985 413.553 421.911 412.576 421.911 412.576C421.911 412.576 425.066 400.179 415.177 393.3Z" fill="#FEFEFE"/>
<path d="M349.245 412.165C349.3 412.165 349.355 412.174 349.407 412.192C349.546 412.236 349.661 412.335 349.722 412.467C350.09 413.249 351.044 413.413 351.78 413.413C353.804 413.413 356.568 412.246 358.503 410.574C362.319 407.277 366.41 406.447 370.92 408.039C376.318 409.944 383.606 412.183 392.125 412.596C393.616 412.668 395.556 412.704 397.892 412.704C406.787 412.704 419.1 412.174 421.48 412.067C421.887 409.983 423.366 399.823 415.083 393.88C406.747 396.371 391.43 400.548 383.894 400.034C380.534 399.806 377.138 399.022 373.855 398.263C370.177 397.414 366.702 396.611 363.499 396.611C362.203 396.611 361.052 396.742 359.978 397.01C353.059 398.738 341.801 407.246 342.52 410.203C342.72 411.022 343.204 411.406 344.046 411.406C344.824 411.406 345.58 411.069 345.587 411.065C345.851 410.95 346.161 411.061 346.282 411.322C346.658 412.118 347.185 412.506 347.893 412.506C348.481 412.506 348.983 412.234 348.988 412.232C349.068 412.187 349.155 412.165 349.245 412.165ZM351.78 414.469C350.277 414.469 349.468 413.933 349.033 413.358C348.742 413.46 348.339 413.563 347.893 413.563C347.191 413.563 346.249 413.313 345.56 412.202C345.186 412.323 344.63 412.462 344.046 412.462C342.716 412.462 341.809 411.748 341.493 410.452C340.495 406.344 353.118 397.636 359.723 395.985C360.88 395.697 362.115 395.555 363.499 395.555C366.824 395.555 370.355 396.37 374.093 397.234C377.336 397.984 380.69 398.759 383.965 398.98C391.405 399.494 406.824 395.254 415.026 392.794C415.18 392.749 415.348 392.775 415.479 392.867C425.552 399.874 422.456 412.579 422.423 412.706C422.367 412.932 422.168 413.093 421.936 413.103C421.795 413.111 407.755 413.76 397.893 413.76C397.892 413.76 397.893 413.76 397.892 413.76C395.538 413.76 393.581 413.723 392.073 413.65C383.418 413.231 376.034 410.964 370.569 409.035C366.421 407.573 362.719 408.327 359.194 411.373C357.082 413.196 354.034 414.469 351.78 414.469Z" fill="#292929"/>
<path d="M439.682 388.471L440.685 376.432L443.982 387.611L439.682 388.471ZM480.099 383.168C473.793 366.256 468.347 347.911 463.187 339.597C458.027 331.285 451.864 323.546 440.399 322.399C432.087 321.825 424.633 321.539 424.633 321.539C421.91 328.705 413.167 363.39 417.754 392.485C415.747 392.485 414.314 393.631 414.314 393.631C418.9 397.358 421.48 404.094 420.334 413.123C440.255 414.699 461.324 411.546 468.203 409.826C475.083 408.107 486.406 400.081 480.099 383.168Z" fill="#40BDDE"/>
<path d="M289.381 285.468C289.104 285.468 288.872 285.252 288.854 284.972C288.836 284.682 289.057 284.432 289.348 284.413C290.332 284.351 291.517 284.239 292.809 284.118C297.14 283.708 302.531 283.202 305.752 284.032C306.035 284.105 306.204 284.394 306.132 284.676C306.058 284.958 305.772 285.128 305.488 285.056C302.441 284.268 297.156 284.769 292.907 285.169C291.604 285.291 290.407 285.405 289.414 285.467C289.403 285.468 289.391 285.468 289.381 285.468Z" fill="#292929"/>
<path d="M363.145 369.794C362.899 369.794 362.679 369.62 362.629 369.369C361.671 364.574 362.742 358.426 364.23 354.461C364.331 354.188 364.638 354.045 364.909 354.153C365.183 354.254 365.321 354.559 365.218 354.832C364.149 357.686 362.615 363.916 363.664 369.162C363.721 369.448 363.536 369.727 363.25 369.783C363.215 369.79 363.18 369.794 363.145 369.794Z" fill="#292929"/>
<path d="M414.632 393.775C414.399 393.775 414.186 393.619 414.122 393.382C414.048 393.101 414.216 392.811 414.497 392.737C419.133 391.51 448.173 385.812 458.413 384.935C458.698 384.909 458.958 385.125 458.984 385.415C459.009 385.707 458.793 385.962 458.504 385.987C448.307 386.861 419.385 392.535 414.768 393.758C414.722 393.77 414.677 393.775 414.632 393.775Z" fill="#292929"/>
<path d="M441.402 378.824C441.178 378.824 440.971 378.68 440.899 378.456C439.862 375.214 437.312 364.988 436.087 360.073L435.73 358.644C435.66 358.362 435.831 358.075 436.114 358.004C436.393 357.934 436.683 358.106 436.755 358.389L437.112 359.818C438.334 364.721 440.879 374.926 441.905 378.135C441.994 378.412 441.84 378.711 441.562 378.799C441.509 378.815 441.455 378.824 441.402 378.824Z" fill="#292929"/>
<path d="M349.245 413.221C349.229 413.221 349.212 413.22 349.196 413.219C348.906 413.192 348.692 412.936 348.718 412.645C348.892 410.726 356.61 404.286 363.575 402.297C363.858 402.213 364.148 402.38 364.228 402.658C364.308 402.939 364.146 403.232 363.865 403.312C356.857 405.314 349.883 411.498 349.77 412.74C349.746 413.015 349.514 413.221 349.245 413.221Z" fill="#292929"/>
<path d="M345.804 412.075C345.513 412.075 345.276 411.839 345.276 411.547C345.276 408.792 351.06 402.982 360.122 400.149C360.407 400.061 360.697 400.218 360.785 400.496C360.871 400.774 360.716 401.07 360.438 401.157C351.132 404.065 346.332 409.758 346.332 411.547C346.332 411.839 346.097 412.075 345.804 412.075Z" fill="#292929"/>
<path d="M383.206 411.135H337.946L319.732 357.939C318.142 353.3 312.831 349.504 307.928 349.504H230.635C225.734 349.504 223.022 353.3 224.609 357.939L243.372 412.737C245.424 418.057 245.665 422.436 250.999 422.436H383.206C386.326 422.436 388.857 419.906 388.857 416.783C388.857 413.663 386.326 411.135 383.206 411.135Z" fill="#FAAD3A"/>
<path d="M333.956 412.644H244.061C243.77 412.644 243.533 412.408 243.533 412.116C243.533 411.824 243.77 411.588 244.061 411.588H333.956C334.247 411.588 334.484 411.824 334.484 412.116C334.484 412.408 334.247 412.644 333.956 412.644Z" fill="#292929"/>
<path d="M275.236 377.154C273.906 377.154 272.806 377.681 272.057 378.679C270.971 380.122 270.748 382.329 271.444 384.735C272.698 389.078 276.54 392.612 280.006 392.612C281.335 392.612 282.433 392.084 283.183 391.085C284.269 389.64 284.492 387.434 283.796 385.03C282.545 380.687 278.705 377.154 275.236 377.154ZM280.006 393.668C276.101 393.668 271.805 389.792 270.429 385.028C269.64 382.301 269.926 379.756 271.212 378.045C272.156 376.788 273.585 376.097 275.236 376.097C279.143 376.097 283.439 379.974 284.811 384.737C285.6 387.462 285.315 390.008 284.027 391.72C283.083 392.976 281.656 393.668 280.006 393.668Z" fill="#292929"/>
</svg>
